<?xml version="1.0" encoding="UTF-8" standalone="no"?>
<!DOCTYPE svg PUBLIC "-//W3C//DTD SVG 1.1//EN" "http://www.w3.org/Graphics/SVG/1.1/DTD/svg11.dtd">
<svg width="100%" height="100%" viewBox="0 0 1000 1200" version="1.1" xmlns="http://www.w3.org/2000/svg" xmlns:xlink="http://www.w3.org/1999/xlink" xml:space="preserve" xmlns:serif="http://www.serif.com/" style="fill-rule:evenodd;clip-rule:evenodd;stroke-linecap:round;stroke-linejoin:round;stroke-miterlimit:1.5;">
    <g transform="matrix(1,0,0,1,-48.7861,-125.242)">
        <g transform="matrix(0.509482,0,0,0.103939,-834.689,-217.519)">
            <rect x="1733.68" y="3293.34" width="1961.98" height="1961.98" style="fill:white;"/>
        </g>
        <g id="Fill-1" transform="matrix(2.52297,0,0,2.52297,111.378,152.361)">
            <path d="M82.07,0L26.39,0L35.21,19L39.31,19L42.68,26.25L46.06,19L50.17,19L44,32.24L41.37,32.24L54.23,59.92L67.39,31.6C66.339,32.203 65.147,32.521 63.935,32.521C60.128,32.521 56.995,29.388 56.995,25.581C56.995,21.774 60.128,18.641 63.935,18.641C66.366,18.641 68.626,19.918 69.88,22L66.78,23.86C66.171,22.862 65.089,22.245 63.92,22.23C63.913,22.23 63.906,22.23 63.899,22.23C62.072,22.23 60.569,23.733 60.569,25.56C60.569,27.387 62.072,28.89 63.899,28.89C65.085,28.89 66.185,28.256 66.78,27.23L68.78,28.46L71.78,22.1L71.78,32.3L82,32.3L82,29L75.46,29L75.46,27.22L80.7,27.22L80.7,24L75.46,24L75.46,22.16L82,22.16L82,18.84L73.32,18.84L82.07,0ZM55.07,32.24L51.27,32.24L51.27,19L55.07,19L55.07,32.24Z" style="fill:rgb(14,129,138);fill-rule:nonzero;"/>
        </g>
        <g id="Fill-3" transform="matrix(2.52297,0,0,2.52297,111.378,152.361)">
            <path d="M10.38,31.59C11.387,30.88 11.961,29.7 11.9,28.47C11.916,27.813 11.786,27.161 11.52,26.56C11.299,26.067 10.955,25.64 10.52,25.32C10.105,25.02 9.655,24.772 9.18,24.58C8.707,24.383 8.219,24.226 7.72,24.11C7.23,24 6.8,23.89 6.4,23.79C6.042,23.714 5.702,23.568 5.4,23.36C5.182,23.218 5.056,22.97 5.07,22.71C5.07,22.19 5.43,21.88 6.07,21.79C6.74,21.702 7.422,21.756 8.07,21.95C8.609,22.083 9.122,22.302 9.59,22.6L11.41,19.95C9.93,18.974 8.182,18.481 6.41,18.54C5.077,18.5 3.77,18.921 2.71,19.73C1.744,20.42 1.175,21.542 1.19,22.73C1.17,23.447 1.347,24.156 1.7,24.78C2.021,25.292 2.469,25.712 3,26C3.524,26.3 4.073,26.554 4.64,26.76C5.175,26.961 5.723,27.124 6.28,27.25C6.72,27.336 7.143,27.494 7.53,27.72C7.816,27.858 8.004,28.143 8.02,28.46C8.039,28.781 7.86,29.082 7.57,29.22C7.216,29.393 6.823,29.469 6.43,29.44C5.95,29.43 5.472,29.383 5,29.3C4.558,29.221 4.128,29.087 3.72,28.9C3.425,28.783 3.154,28.614 2.92,28.4L1,31.19C2.631,32.226 4.539,32.742 6.47,32.67C7.851,32.729 9.216,32.351 10.37,31.59" style="fill:rgb(14,129,138);fill-rule:nonzero;"/>
        </g>
        <g id="Fill-4" transform="matrix(2.52297,0,0,2.52297,111.378,152.361)">
            <path d="M23.6,22.16L23.6,18.84L13.43,18.84L13.43,32.36L23.6,32.36L23.6,29.04L17.11,29.04L17.11,27.22L22.35,27.22L22.35,23.98L17.11,23.98L17.11,22.16L23.6,22.16Z" style="fill:rgb(14,129,138);fill-rule:nonzero;"/>
        </g>
        <g id="Fill-5" transform="matrix(2.52297,0,0,2.52297,111.378,152.361)">
            <path d="M32.55,24.84C32.322,25.166 31.948,25.36 31.55,25.36L29.22,25.36L29.22,22.16L31.57,22.16C31.968,22.16 32.342,22.354 32.57,22.68C33.096,23.3 33.096,24.22 32.57,24.84M36.83,23.76C36.864,22.432 36.325,21.152 35.35,20.25C34.375,19.319 33.068,18.811 31.72,18.84L25.53,18.84L25.53,32.36L29.22,32.36L29.22,28.68L31,28.68L32.68,32.36L36.82,32.36L34.53,27.82C35.957,26.964 36.841,25.424 36.86,23.76" style="fill:rgb(14,129,138);fill-rule:nonzero;"/>
        </g>
        <g id="Fill-6" transform="matrix(2.52297,0,0,2.52297,111.378,152.361)">
            <path d="M79.34,39.32C78.762,38.955 78.094,38.758 77.41,38.75C76.65,38.75 76.11,39.05 76.11,39.56C76.11,40.07 76.7,40.21 77.51,40.34L77.89,40.4C79.1,40.6 80.06,41.12 80.06,42.3C80.06,43.8 78.74,44.52 77.28,44.52C76.252,44.542 75.245,44.23 74.41,43.63L75.12,42.54C75.744,43.014 76.506,43.271 77.29,43.27C78.04,43.27 78.63,42.97 78.63,42.45C78.63,41.93 78.14,41.81 77.19,41.66L76.76,41.59C75.56,41.4 74.68,40.87 74.68,39.65C74.68,38.23 75.94,37.5 77.39,37.5C78.308,37.487 79.21,37.737 79.99,38.22L79.34,39.32Z" style="fill:rgb(14,129,138);fill-rule:nonzero;"/>
        </g>
        <g id="Fill-7" transform="matrix(2.52297,0,0,2.52297,111.378,152.361)">
            <path d="M84.32,40.82L82.62,40.82L82.62,42.53C82.62,43.12 82.93,43.33 83.32,43.33C83.639,43.307 83.946,43.2 84.21,43.02L84.67,44.02C84.215,44.345 83.669,44.517 83.11,44.51C81.95,44.51 81.35,43.86 81.35,42.64L81.35,40.82L80.44,40.82L80.44,39.7L81.35,39.7L81.35,38.3L82.62,38.3L82.62,39.7L84.32,39.7L84.32,40.82Z" style="fill:rgb(14,129,138);fill-rule:nonzero;"/>
        </g>
        <g id="Fill-8" transform="matrix(2.52297,0,0,2.52297,111.378,152.361)">
            <path d="M89.82,44.39L88.58,44.39L88.58,43.87C88.234,44.288 87.712,44.521 87.17,44.5C85.898,44.385 84.912,43.307 84.912,42.03C84.912,40.753 85.898,39.675 87.17,39.56C87.714,39.541 88.236,39.778 88.58,40.2L88.58,39.7L89.82,39.7L89.82,44.39ZM86.19,42C86.227,42.642 86.765,43.15 87.408,43.15C88.077,43.15 88.628,42.599 88.628,41.93C88.628,41.261 88.079,40.711 87.41,40.71C87.406,40.71 87.402,40.71 87.397,40.71C86.734,40.71 86.187,41.256 86.187,41.92C86.187,41.947 86.188,41.973 86.19,42Z" style="fill:rgb(14,129,138);fill-rule:nonzero;"/>
        </g>
        <g id="Fill-9" transform="matrix(2.52297,0,0,2.52297,111.378,152.361)">
            <path d="M94.38,40.82L92.67,40.82L92.67,42.53C92.67,43.12 92.98,43.33 93.38,43.33C93.699,43.307 94.006,43.2 94.27,43.02L94.73,44.02C94.276,44.346 93.729,44.517 93.17,44.51C92.01,44.51 91.41,43.86 91.41,42.64L91.41,40.82L90.5,40.82L90.5,39.7L91.41,39.7L91.41,38.3L92.68,38.3L92.68,39.7L94.39,39.7L94.38,40.82Z" style="fill:rgb(14,129,138);fill-rule:nonzero;"/>
        </g>
        <g id="Fill-10" transform="matrix(2.52297,0,0,2.52297,111.378,152.361)">
            <path d="M99.62,42C99.627,42.14 99.627,42.28 99.62,42.42L96.26,42.42C96.328,43.021 96.867,43.467 97.47,43.42C97.903,43.418 98.322,43.27 98.66,43L99.4,43.81C98.849,44.293 98.133,44.548 97.4,44.52C97.39,44.52 97.38,44.52 97.37,44.52C96.015,44.52 94.9,43.405 94.9,42.05C94.9,40.706 95.996,39.596 97.34,39.58C97.345,39.58 97.35,39.58 97.355,39.58C98.6,39.58 99.625,40.605 99.625,41.85C99.625,41.9 99.623,41.95 99.62,42M96.26,41.57L98.34,41.57C98.34,40.999 97.871,40.53 97.3,40.53C96.729,40.53 96.26,40.999 96.26,41.57" style="fill:rgb(14,129,138);fill-rule:nonzero;"/>
        </g>
        <g id="Fill-11" transform="matrix(2.52297,0,0,2.52297,111.378,152.361)">
            <path d="M80.57,47.25L79.57,48.25C79.151,47.81 78.569,47.56 77.962,47.56C76.744,47.56 75.742,48.562 75.742,49.78C75.742,50.986 76.724,51.983 77.93,52C78.868,52.106 79.731,51.435 79.86,50.5L78.13,50.5L78.13,49.35L81.26,49.35L81.26,49.73C81.265,49.803 81.267,49.877 81.267,49.95C81.267,51.746 79.796,53.228 78,53.24C76.113,53.179 74.594,51.61 74.594,49.722C74.594,47.791 76.183,46.202 78.114,46.202C79.051,46.202 79.95,46.576 80.61,47.24" style="fill:rgb(14,129,138);fill-rule:nonzero;"/>
        </g>
        <g id="Fill-12" transform="matrix(2.52297,0,0,2.52297,111.378,152.361)">
            <path d="M87,50.77C87.001,50.797 87.001,50.823 87.001,50.85C87.001,52.249 85.85,53.4 84.451,53.4C83.052,53.4 81.901,52.249 81.901,50.85C81.901,49.452 83.052,48.301 84.45,48.3C84.483,48.299 84.517,48.298 84.55,48.298C85.894,48.298 87,49.404 87,50.748C87,50.755 87,50.763 87,50.77M83.2,50.77C83.221,51.44 83.779,51.98 84.449,51.98C85.135,51.98 85.699,51.416 85.699,50.73C85.699,50.045 85.135,49.48 84.45,49.48C84.443,49.48 84.436,49.48 84.429,49.48C83.754,49.48 83.199,50.035 83.199,50.71C83.199,50.73 83.199,50.75 83.2,50.77" style="fill:rgb(14,129,138);fill-rule:nonzero;"/>
        </g>
        <g id="Fill-13" transform="matrix(2.52297,0,0,2.52297,111.378,152.361)">
            <path d="M90.46,53.12L89,53.12L87.14,48.42L88.52,48.42L89.74,51.78L90.97,48.42L92.31,48.42L90.46,53.12Z" style="fill:rgb(14,129,138);fill-rule:nonzero;"/>
        </g>
        <g id="Fill-14" transform="matrix(2.52297,0,0,2.52297,111.378,152.361)">
            <path d="M97.11,50.76C97.117,50.9 97.117,51.04 97.11,51.18L93.74,51.18C93.813,51.779 94.348,52.221 94.95,52.18C95.387,52.172 95.807,52.013 96.14,51.73L96.88,52.54C96.328,53.022 95.613,53.277 94.88,53.25C94.87,53.25 94.86,53.25 94.85,53.25C93.495,53.25 92.38,52.135 92.38,50.78C92.38,49.436 93.476,48.326 94.82,48.31C94.83,48.31 94.839,48.31 94.849,48.31C96.094,48.31 97.119,49.335 97.119,50.58C97.119,50.647 97.116,50.713 97.11,50.78M93.75,50.35L95.83,50.35C95.798,49.824 95.357,49.409 94.83,49.41C94.809,49.409 94.789,49.408 94.768,49.408C94.242,49.408 93.801,49.824 93.77,50.35" style="fill:rgb(14,129,138);fill-rule:nonzero;"/>
        </g>
        <g id="Fill-15" transform="matrix(2.52297,0,0,2.52297,111.378,152.361)">
            <path d="M101.16,48.4L101,49.65C100.755,49.551 100.494,49.5 100.23,49.5C100.208,49.498 100.186,49.498 100.163,49.498C99.648,49.498 99.223,49.922 99.223,50.438C99.223,50.475 99.226,50.513 99.23,50.55L99.23,53.11L97.94,53.11L97.94,48.41L99.17,48.41L99.17,48.93C99.466,48.499 99.968,48.255 100.49,48.29C100.714,48.286 100.937,48.32 101.15,48.39" style="fill:rgb(14,129,138);fill-rule:nonzero;"/>
        </g>
        <g id="Fill-16" transform="matrix(2.52297,0,0,2.52297,111.378,152.361)">
            <path d="M106.28,50.13L106.28,53.13L105,53.13L105,50.53C105,49.85 104.66,49.53 104.08,49.53C104.079,49.53 104.079,49.53 104.078,49.53C103.53,49.53 103.078,49.981 103.078,50.53C103.078,50.55 103.079,50.57 103.08,50.59L103.08,53.16L101.81,53.16L101.81,48.42L103.04,48.42L103.04,49C103.353,48.547 103.88,48.289 104.43,48.32C104.457,48.319 104.485,48.318 104.512,48.318C105.472,48.318 106.262,49.108 106.262,50.068C106.262,50.095 106.261,50.123 106.26,50.15" style="fill:rgb(14,129,138);fill-rule:nonzero;"/>
        </g>
        <g id="Fill-17" transform="matrix(2.52297,0,0,2.52297,111.378,152.361)">
            <path d="M115,50.13L115,53.13L113.74,53.13L113.74,50.53C113.74,49.85 113.4,49.53 112.82,49.53C112.819,49.53 112.819,49.53 112.818,49.53C112.27,49.53 111.818,49.981 111.818,50.53C111.818,50.55 111.819,50.57 111.82,50.59L111.82,53.16L110.56,53.16L110.56,50.53C110.56,49.85 110.22,49.53 109.64,49.53C109.639,49.53 109.639,49.53 109.638,49.53C109.09,49.53 108.638,49.981 108.638,50.53C108.638,50.55 108.639,50.57 108.64,50.59L108.64,53.16L107.37,53.16L107.37,48.42L108.61,48.42L108.61,49C108.919,48.549 109.443,48.29 109.99,48.32C110.613,48.296 111.206,48.6 111.55,49.12C111.906,48.616 112.485,48.315 113.102,48.315C114.109,48.315 114.949,49.115 115,50.12" style="fill:rgb(14,129,138);fill-rule:nonzero;"/>
        </g>
        <g id="Fill-18" transform="matrix(2.52297,0,0,2.52297,111.378,152.361)">
            <path d="M120.48,50.76C120.489,50.9 120.489,51.04 120.48,51.18L117.14,51.18C117.213,51.779 117.748,52.221 118.35,52.18C118.786,52.171 119.207,52.012 119.54,51.73L120.28,52.54C119.728,53.022 119.013,53.277 118.28,53.25C118.27,53.25 118.26,53.25 118.25,53.25C116.895,53.25 115.78,52.135 115.78,50.78C115.78,49.436 116.876,48.326 118.22,48.31C118.23,48.31 118.239,48.31 118.249,48.31C119.494,48.31 120.519,49.335 120.519,50.58C120.519,50.647 120.516,50.713 120.51,50.78M117.15,50.35L119.23,50.35C119.23,49.779 118.761,49.31 118.19,49.31C117.619,49.31 117.15,49.779 117.15,50.35" style="fill:rgb(14,129,138);fill-rule:nonzero;"/>
        </g>
        <g id="Fill-19" transform="matrix(2.52297,0,0,2.52297,111.378,152.361)">
            <path d="M125.77,50.13L125.77,53.13L124.5,53.13L124.5,50.53C124.5,49.85 124.16,49.53 123.58,49.53C123.579,49.53 123.579,49.53 123.578,49.53C123.03,49.53 122.578,49.981 122.578,50.53C122.578,50.55 122.579,50.57 122.58,50.59L122.58,53.16L121.31,53.16L121.31,48.42L122.54,48.42L122.54,49C122.853,48.547 123.38,48.289 123.93,48.32C123.957,48.319 123.985,48.318 124.012,48.318C124.972,48.318 125.762,49.108 125.762,50.068C125.762,50.095 125.761,50.123 125.76,50.15" style="fill:rgb(14,129,138);fill-rule:nonzero;"/>
        </g>
        <g id="Fill-20" transform="matrix(2.52297,0,0,2.52297,111.378,152.361)">
            <path d="M130.24,49.54L128.54,49.54L128.54,51.26C128.54,51.84 128.85,52.06 129.24,52.06C129.559,52.037 129.866,51.93 130.13,51.75L130.59,52.75C130.137,53.078 129.59,53.254 129.03,53.25C127.87,53.25 127.27,52.59 127.27,51.38L127.27,49.54L126.36,49.54L126.36,48.42L127.27,48.42L127.27,47L128.54,47L128.54,48.4L130.24,48.4L130.24,49.54Z" style="fill:rgb(14,129,138);fill-rule:nonzero;"/>
        </g>
        <g transform="matrix(0.225415,0,0,0.225415,-622.605,-614.82)">
            <g transform="matrix(10.5992,0,0,13.7449,2467.3,4029.92)">
                <ellipse cx="257.335" cy="190.677" rx="74.345" ry="20.517" style="fill:rgb(220,234,235);stroke:rgb(14,129,138);stroke-width:8.83px;"/>
            </g>
            <g transform="matrix(8.33333,0,0,8.33333,3218.84,4950.75)">
                <path d="M294.202,125.344C312.316,97.021 306.89,59.697 281.462,37.701C256.034,15.705 218.312,15.705 192.883,37.701C167.455,59.697 162.03,97.021 180.143,125.344L237.173,214.521L294.202,125.344Z" style="fill:rgb(220,234,235);stroke:rgb(14,129,138);stroke-width:13px;stroke-miterlimit:2;"/>
            </g>
            <g transform="matrix(8.33333,0,0,8.33333,3218.84,4950.75)">
                <path d="M264.718,88.885C264.718,73.675 252.385,61.344 237.173,61.344C221.96,61.344 209.628,73.675 209.628,88.885C209.628,104.095 221.96,116.425 237.173,116.425C252.385,116.425 264.718,104.095 264.718,88.885Z" style="fill:none;stroke:rgb(14,129,138);stroke-width:13px;stroke-linecap:butt;stroke-linejoin:miter;stroke-miterlimit:2;"/>
            </g>
        </g>
        <g transform="matrix(0.402097,0,0,0.402097,-1675.51,-1247)">
            <path d="M6612.16,5690.93C6612.16,5679.29 6607.54,5668.12 6599.3,5659.89C6591.07,5651.65 6579.9,5647.03 6568.26,5647.03C6289.75,5647.03 4771.74,5647.03 4493.23,5647.03C4481.59,5647.03 4470.42,5651.65 4462.19,5659.89C4453.95,5668.12 4449.33,5679.29 4449.33,5690.93C4449.33,5747.43 4449.33,5845 4449.33,5901.5C4449.33,5913.14 4453.95,5924.31 4462.19,5932.55C4470.42,5940.78 4481.59,5945.4 4493.23,5945.4C4771.74,5945.4 6289.75,5945.4 6568.26,5945.4C6579.9,5945.4 6591.07,5940.78 6599.3,5932.55C6607.54,5924.31 6612.16,5913.14 6612.16,5901.5C6612.16,5845 6612.16,5747.43 6612.16,5690.93Z" style="fill:rgb(14,129,138);"/>
        </g>
        <g transform="matrix(0.402097,0,0,0.402097,-1677.38,-1246.99)">
            <path d="M6495.64,6117.59L6495.64,5998.36" style="fill:none;stroke:rgb(55,74,96);stroke-width:58.33px;"/>
        </g>
        <g transform="matrix(0.402097,0,0,0.402097,-1677.38,-1246.99)">
            <path d="M6451.17,6117.59L6451.17,5984.82" style="fill:none;stroke:rgb(55,74,96);stroke-width:58.33px;"/>
        </g>
        <g transform="matrix(0.402097,0,0,0.402097,-1677.38,-1246.99)">
            <path d="M6409.92,5893.31L6409.92,6117.59L6346.12,6054.43L6409.92,6117.59L6532.37,6117.59L6532.37,6009.96" style="fill:none;stroke:rgb(55,74,96);stroke-width:58.33px;"/>
        </g>
        <g transform="matrix(0.402097,0,0,0.402097,-3112.67,-501.645)">
            <g transform="matrix(114.377,0,0,114.377,8401.89,3978.25)">
                <path d="M0.566,-0.214L0.691,-0.161C0.664,-0.105 0.624,-0.062 0.571,-0.031C0.518,-0 0.458,0.015 0.392,0.015C0.293,0.015 0.21,-0.019 0.142,-0.086C0.074,-0.153 0.04,-0.236 0.04,-0.335C0.04,-0.433 0.074,-0.516 0.142,-0.584C0.21,-0.651 0.293,-0.685 0.392,-0.685C0.452,-0.685 0.507,-0.672 0.557,-0.646C0.607,-0.62 0.647,-0.584 0.677,-0.537L0.556,-0.474C0.519,-0.529 0.465,-0.557 0.392,-0.557C0.331,-0.557 0.28,-0.536 0.239,-0.494C0.198,-0.451 0.177,-0.398 0.177,-0.335C0.177,-0.272 0.198,-0.219 0.239,-0.176C0.281,-0.133 0.332,-0.112 0.392,-0.112C0.473,-0.112 0.531,-0.146 0.566,-0.214Z" style="fill:white;fill-rule:nonzero;"/>
            </g>
            <g transform="matrix(114.377,0,0,114.377,8485.73,3978.25)">
                <path d="M0.302,-0.511C0.377,-0.511 0.44,-0.487 0.493,-0.438C0.545,-0.389 0.571,-0.326 0.571,-0.249C0.571,-0.172 0.545,-0.11 0.493,-0.061C0.44,-0.012 0.377,0.013 0.302,0.013C0.226,0.013 0.162,-0.012 0.109,-0.061C0.056,-0.11 0.03,-0.172 0.03,-0.249C0.03,-0.326 0.056,-0.389 0.109,-0.438C0.162,-0.487 0.226,-0.511 0.302,-0.511ZM0.302,-0.1C0.339,-0.1 0.371,-0.114 0.4,-0.141C0.429,-0.169 0.443,-0.205 0.443,-0.249C0.443,-0.293 0.429,-0.329 0.4,-0.357C0.371,-0.384 0.339,-0.398 0.302,-0.398C0.264,-0.398 0.231,-0.384 0.202,-0.357C0.172,-0.33 0.158,-0.294 0.158,-0.249C0.158,-0.204 0.172,-0.168 0.202,-0.141C0.231,-0.114 0.264,-0.1 0.302,-0.1Z" style="fill:white;fill-rule:nonzero;"/>
            </g>
            <g transform="matrix(114.377,0,0,114.377,8554.47,3978.25)">
                <path d="M0.359,-0.514C0.419,-0.514 0.467,-0.495 0.504,-0.456C0.541,-0.417 0.559,-0.366 0.559,-0.304L0.559,-0L0.427,-0L0.427,-0.276C0.427,-0.311 0.418,-0.34 0.4,-0.361C0.381,-0.382 0.357,-0.393 0.326,-0.393C0.243,-0.393 0.202,-0.336 0.202,-0.221L0.202,-0L0.07,-0L0.07,-0.499L0.202,-0.499L0.202,-0.454C0.242,-0.494 0.294,-0.514 0.359,-0.514Z" style="fill:white;fill-rule:nonzero;"/>
            </g>
            <g transform="matrix(114.377,0,0,114.377,8624.92,3978.25)">
                <path d="M0.395,-0.132L0.433,-0.022C0.387,0.003 0.344,0.015 0.303,0.015C0.242,0.015 0.194,-0.002 0.159,-0.035C0.124,-0.068 0.107,-0.117 0.107,-0.184L0.107,-0.391L0,-0.391L0,-0.499L0.107,-0.499L0.107,-0.65L0.239,-0.65L0.239,-0.499L0.402,-0.499L0.402,-0.391L0.239,-0.391L0.239,-0.194C0.239,-0.137 0.263,-0.108 0.312,-0.108C0.337,-0.108 0.365,-0.116 0.395,-0.132Z" style="fill:white;fill-rule:nonzero;"/>
            </g>
            <g transform="matrix(114.377,0,0,114.377,8673.42,3978.25)">
                <path d="M0.44,-0.499L0.572,-0.499L0.572,-0L0.44,-0L0.44,-0.039C0.395,-0.003 0.34,0.015 0.275,0.015C0.209,0.015 0.152,-0.01 0.103,-0.06C0.054,-0.11 0.03,-0.173 0.03,-0.249C0.03,-0.325 0.055,-0.388 0.103,-0.439C0.153,-0.489 0.21,-0.514 0.275,-0.514C0.341,-0.514 0.396,-0.496 0.44,-0.459L0.44,-0.499ZM0.298,-0.1C0.335,-0.1 0.368,-0.114 0.397,-0.141C0.426,-0.169 0.44,-0.205 0.44,-0.249C0.44,-0.293 0.426,-0.329 0.397,-0.357C0.368,-0.385 0.335,-0.399 0.298,-0.399C0.257,-0.399 0.224,-0.385 0.198,-0.358C0.171,-0.331 0.158,-0.294 0.158,-0.249C0.158,-0.204 0.171,-0.168 0.198,-0.141C0.224,-0.114 0.257,-0.1 0.298,-0.1Z" style="fill:white;fill-rule:nonzero;"/>
            </g>
            <g transform="matrix(114.377,0,0,114.377,8746.85,3978.25)">
                <path d="M0.415,-0.178L0.535,-0.135C0.516,-0.089 0.485,-0.053 0.442,-0.025C0.399,0.001 0.35,0.015 0.297,0.015C0.222,0.015 0.159,-0.01 0.108,-0.059C0.056,-0.108 0.03,-0.172 0.03,-0.249C0.03,-0.326 0.056,-0.39 0.108,-0.44C0.159,-0.489 0.222,-0.514 0.297,-0.514C0.348,-0.514 0.395,-0.501 0.437,-0.475C0.479,-0.45 0.511,-0.415 0.532,-0.37L0.41,-0.323C0.389,-0.37 0.352,-0.393 0.297,-0.393C0.256,-0.393 0.222,-0.38 0.197,-0.353C0.171,-0.326 0.158,-0.292 0.158,-0.249C0.158,-0.206 0.171,-0.172 0.197,-0.146C0.222,-0.119 0.256,-0.106 0.297,-0.106C0.351,-0.106 0.39,-0.13 0.415,-0.178Z" style="fill:white;fill-rule:nonzero;"/>
            </g>
            <g transform="matrix(114.377,0,0,114.377,8811.47,3978.25)">
                <path d="M0.395,-0.132L0.433,-0.022C0.387,0.003 0.344,0.015 0.303,0.015C0.242,0.015 0.194,-0.002 0.159,-0.035C0.124,-0.068 0.107,-0.117 0.107,-0.184L0.107,-0.391L0,-0.391L0,-0.499L0.107,-0.499L0.107,-0.65L0.239,-0.65L0.239,-0.499L0.402,-0.499L0.402,-0.391L0.239,-0.391L0.239,-0.194C0.239,-0.137 0.263,-0.108 0.312,-0.108C0.337,-0.108 0.365,-0.116 0.395,-0.132Z" style="fill:white;fill-rule:nonzero;"/>
            </g>
            <g transform="matrix(114.377,0,0,114.377,8888.9,3978.25)">
                <path d="M0.395,-0.132L0.433,-0.022C0.387,0.003 0.344,0.015 0.303,0.015C0.242,0.015 0.194,-0.002 0.159,-0.035C0.124,-0.068 0.107,-0.117 0.107,-0.184L0.107,-0.391L0,-0.391L0,-0.499L0.107,-0.499L0.107,-0.65L0.239,-0.65L0.239,-0.499L0.402,-0.499L0.402,-0.391L0.239,-0.391L0.239,-0.194C0.239,-0.137 0.263,-0.108 0.312,-0.108C0.337,-0.108 0.365,-0.116 0.395,-0.132Z" style="fill:white;fill-rule:nonzero;"/>
            </g>
            <g transform="matrix(114.377,0,0,114.377,8938.54,3978.25)">
                <path d="M0.381,-0.506C0.396,-0.506 0.408,-0.505 0.416,-0.502L0.409,-0.375L0.38,-0.375C0.261,-0.375 0.202,-0.304 0.202,-0.161L0.202,-0L0.07,-0L0.07,-0.499L0.202,-0.499L0.202,-0.408C0.247,-0.473 0.307,-0.506 0.381,-0.506Z" style="fill:white;fill-rule:nonzero;"/>
            </g>
            <g transform="matrix(114.377,0,0,114.377,8987.04,3978.25)">
                <path d="M0.44,-0.499L0.572,-0.499L0.572,-0L0.44,-0L0.44,-0.039C0.395,-0.003 0.34,0.015 0.275,0.015C0.209,0.015 0.152,-0.01 0.103,-0.06C0.054,-0.11 0.03,-0.173 0.03,-0.249C0.03,-0.325 0.055,-0.388 0.103,-0.439C0.153,-0.489 0.21,-0.514 0.275,-0.514C0.341,-0.514 0.396,-0.496 0.44,-0.459L0.44,-0.499ZM0.298,-0.1C0.335,-0.1 0.368,-0.114 0.397,-0.141C0.426,-0.169 0.44,-0.205 0.44,-0.249C0.44,-0.293 0.426,-0.329 0.397,-0.357C0.368,-0.385 0.335,-0.399 0.298,-0.399C0.257,-0.399 0.224,-0.385 0.198,-0.358C0.171,-0.331 0.158,-0.294 0.158,-0.249C0.158,-0.204 0.171,-0.168 0.198,-0.141C0.224,-0.114 0.257,-0.1 0.298,-0.1Z" style="fill:white;fill-rule:nonzero;"/>
            </g>
            <g transform="matrix(114.377,0,0,114.377,9060.47,3978.25)">
                <path d="M0.415,-0.178L0.535,-0.135C0.516,-0.089 0.485,-0.053 0.442,-0.025C0.399,0.001 0.35,0.015 0.297,0.015C0.222,0.015 0.159,-0.01 0.108,-0.059C0.056,-0.108 0.03,-0.172 0.03,-0.249C0.03,-0.326 0.056,-0.39 0.108,-0.44C0.159,-0.489 0.222,-0.514 0.297,-0.514C0.348,-0.514 0.395,-0.501 0.437,-0.475C0.479,-0.45 0.511,-0.415 0.532,-0.37L0.41,-0.323C0.389,-0.37 0.352,-0.393 0.297,-0.393C0.256,-0.393 0.222,-0.38 0.197,-0.353C0.171,-0.326 0.158,-0.292 0.158,-0.249C0.158,-0.206 0.171,-0.172 0.197,-0.146C0.222,-0.119 0.256,-0.106 0.297,-0.106C0.351,-0.106 0.39,-0.13 0.415,-0.178Z" style="fill:white;fill-rule:nonzero;"/>
            </g>
            <g transform="matrix(114.377,0,0,114.377,9125.09,3978.25)">
                <path d="M0.086,-0.704C0.101,-0.719 0.12,-0.727 0.143,-0.727C0.166,-0.727 0.185,-0.719 0.2,-0.704C0.215,-0.688 0.223,-0.669 0.223,-0.648C0.223,-0.626 0.215,-0.608 0.2,-0.593C0.185,-0.578 0.166,-0.571 0.143,-0.571C0.12,-0.571 0.101,-0.578 0.086,-0.593C0.07,-0.608 0.063,-0.626 0.063,-0.648C0.063,-0.669 0.071,-0.688 0.086,-0.704ZM0.209,-0.499L0.209,-0L0.077,-0L0.077,-0.499L0.209,-0.499Z" style="fill:white;fill-rule:nonzero;"/>
            </g>
            <g transform="matrix(114.377,0,0,114.377,9157.81,3978.25)">
                <path d="M0.359,-0.514C0.419,-0.514 0.467,-0.495 0.504,-0.456C0.541,-0.417 0.559,-0.366 0.559,-0.304L0.559,-0L0.427,-0L0.427,-0.276C0.427,-0.311 0.418,-0.34 0.4,-0.361C0.381,-0.382 0.357,-0.393 0.326,-0.393C0.243,-0.393 0.202,-0.336 0.202,-0.221L0.202,-0L0.07,-0L0.07,-0.499L0.202,-0.499L0.202,-0.454C0.242,-0.494 0.294,-0.514 0.359,-0.514Z" style="fill:white;fill-rule:nonzero;"/>
            </g>
            <g transform="matrix(114.377,0,0,114.377,9228.26,3978.25)">
                <path d="M0.556,-0.499L0.557,-0.048C0.557,0.027 0.532,0.085 0.481,0.127C0.43,0.169 0.362,0.19 0.279,0.19C0.188,0.19 0.119,0.167 0.07,0.12L0.152,0.022C0.193,0.055 0.234,0.071 0.277,0.071C0.322,0.071 0.359,0.058 0.387,0.033C0.415,0.008 0.429,-0.025 0.429,-0.068L0.429,-0.076C0.391,-0.045 0.339,-0.03 0.272,-0.03C0.208,-0.03 0.152,-0.054 0.103,-0.101C0.054,-0.148 0.03,-0.206 0.03,-0.273C0.03,-0.34 0.054,-0.397 0.103,-0.444C0.152,-0.491 0.208,-0.514 0.272,-0.514C0.337,-0.514 0.39,-0.499 0.429,-0.468L0.429,-0.499L0.556,-0.499ZM0.295,-0.143C0.331,-0.143 0.362,-0.155 0.389,-0.18C0.416,-0.204 0.429,-0.235 0.429,-0.273C0.429,-0.311 0.416,-0.342 0.389,-0.367C0.362,-0.391 0.331,-0.403 0.295,-0.403C0.255,-0.403 0.222,-0.391 0.196,-0.367C0.17,-0.343 0.157,-0.312 0.157,-0.273C0.157,-0.234 0.17,-0.203 0.196,-0.179C0.222,-0.155 0.255,-0.143 0.295,-0.143Z" style="fill:white;fill-rule:nonzero;"/>
            </g>
            <g transform="matrix(114.377,0,0,114.377,9327.77,3978.25)">
                <path d="M0.415,-0.178L0.535,-0.135C0.516,-0.089 0.485,-0.053 0.442,-0.025C0.399,0.001 0.35,0.015 0.297,0.015C0.222,0.015 0.159,-0.01 0.108,-0.059C0.056,-0.108 0.03,-0.172 0.03,-0.249C0.03,-0.326 0.056,-0.39 0.108,-0.44C0.159,-0.489 0.222,-0.514 0.297,-0.514C0.348,-0.514 0.395,-0.501 0.437,-0.475C0.479,-0.45 0.511,-0.415 0.532,-0.37L0.41,-0.323C0.389,-0.37 0.352,-0.393 0.297,-0.393C0.256,-0.393 0.222,-0.38 0.197,-0.353C0.171,-0.326 0.158,-0.292 0.158,-0.249C0.158,-0.206 0.171,-0.172 0.197,-0.146C0.222,-0.119 0.256,-0.106 0.297,-0.106C0.351,-0.106 0.39,-0.13 0.415,-0.178Z" style="fill:white;fill-rule:nonzero;"/>
            </g>
            <g transform="matrix(114.377,0,0,114.377,9392.39,3978.25)">
                <path d="M0.359,-0.514C0.419,-0.514 0.467,-0.495 0.504,-0.456C0.541,-0.417 0.559,-0.366 0.559,-0.304L0.559,-0L0.427,-0L0.427,-0.276C0.427,-0.311 0.418,-0.34 0.4,-0.361C0.381,-0.382 0.357,-0.393 0.326,-0.393C0.243,-0.393 0.202,-0.336 0.202,-0.221L0.202,-0L0.07,-0L0.07,-0.72L0.202,-0.72L0.202,-0.454C0.242,-0.494 0.294,-0.514 0.359,-0.514Z" style="fill:white;fill-rule:nonzero;"/>
            </g>
            <g transform="matrix(114.377,0,0,114.377,9462.96,3978.25)">
                <path d="M0.541,-0.259L0.541,-0.214L0.161,-0.214C0.168,-0.179 0.183,-0.151 0.206,-0.13C0.23,-0.109 0.258,-0.098 0.291,-0.098C0.343,-0.098 0.383,-0.115 0.41,-0.148L0.515,-0.096C0.468,-0.022 0.393,0.015 0.291,0.015C0.217,0.015 0.155,-0.01 0.105,-0.059C0.055,-0.108 0.03,-0.172 0.03,-0.249C0.03,-0.326 0.055,-0.39 0.105,-0.44C0.154,-0.489 0.215,-0.514 0.288,-0.514C0.356,-0.514 0.414,-0.49 0.464,-0.443C0.513,-0.395 0.538,-0.334 0.541,-0.259ZM0.288,-0.399C0.261,-0.399 0.235,-0.391 0.212,-0.375C0.188,-0.359 0.172,-0.336 0.165,-0.307L0.406,-0.307C0.397,-0.338 0.383,-0.361 0.362,-0.376C0.341,-0.391 0.316,-0.399 0.288,-0.399Z" style="fill:white;fill-rule:nonzero;"/>
            </g>
            <g transform="matrix(114.377,0,0,114.377,9528.27,3978.25)">
                <path d="M0.415,-0.178L0.535,-0.135C0.516,-0.089 0.485,-0.053 0.442,-0.025C0.399,0.001 0.35,0.015 0.297,0.015C0.222,0.015 0.159,-0.01 0.108,-0.059C0.056,-0.108 0.03,-0.172 0.03,-0.249C0.03,-0.326 0.056,-0.39 0.108,-0.44C0.159,-0.489 0.222,-0.514 0.297,-0.514C0.348,-0.514 0.395,-0.501 0.437,-0.475C0.479,-0.45 0.511,-0.415 0.532,-0.37L0.41,-0.323C0.389,-0.37 0.352,-0.393 0.297,-0.393C0.256,-0.393 0.222,-0.38 0.197,-0.353C0.171,-0.326 0.158,-0.292 0.158,-0.249C0.158,-0.206 0.171,-0.172 0.197,-0.146C0.222,-0.119 0.256,-0.106 0.297,-0.106C0.351,-0.106 0.39,-0.13 0.415,-0.178Z" style="fill:white;fill-rule:nonzero;"/>
            </g>
            <g transform="matrix(114.377,0,0,114.377,9592.9,3978.25)">
                <path d="M0.31,-0.264L0.597,-0L0.408,-0L0.207,-0.195L0.202,-0.195L0.202,-0L0.07,-0L0.07,-0.72L0.202,-0.72L0.202,-0.325L0.21,-0.325L0.399,-0.499L0.571,-0.499L0.31,-0.264Z" style="fill:white;fill-rule:nonzero;"/>
            </g>
            <g transform="matrix(114.377,0,0,114.377,9655.46,3978.25)">
                <rect x="0.06" y="-0.312" width="0.328" height="0.114" style="fill:white;fill-rule:nonzero;"/>
            </g>
            <g transform="matrix(114.377,0,0,114.377,9706.7,3978.25)">
                <path d="M0.086,-0.704C0.101,-0.719 0.12,-0.727 0.143,-0.727C0.166,-0.727 0.185,-0.719 0.2,-0.704C0.215,-0.688 0.223,-0.669 0.223,-0.648C0.223,-0.626 0.215,-0.608 0.2,-0.593C0.185,-0.578 0.166,-0.571 0.143,-0.571C0.12,-0.571 0.101,-0.578 0.086,-0.593C0.07,-0.608 0.063,-0.626 0.063,-0.648C0.063,-0.669 0.071,-0.688 0.086,-0.704ZM0.209,-0.499L0.209,-0L0.077,-0L0.077,-0.499L0.209,-0.499Z" style="fill:white;fill-rule:nonzero;"/>
            </g>
            <g transform="matrix(114.377,0,0,114.377,9739.41,3978.25)">
                <path d="M0.359,-0.514C0.419,-0.514 0.467,-0.495 0.504,-0.456C0.541,-0.417 0.559,-0.366 0.559,-0.304L0.559,-0L0.427,-0L0.427,-0.276C0.427,-0.311 0.418,-0.34 0.4,-0.361C0.381,-0.382 0.357,-0.393 0.326,-0.393C0.243,-0.393 0.202,-0.336 0.202,-0.221L0.202,-0L0.07,-0L0.07,-0.499L0.202,-0.499L0.202,-0.454C0.242,-0.494 0.294,-0.514 0.359,-0.514Z" style="fill:white;fill-rule:nonzero;"/>
            </g>
        </g>
        <g transform="matrix(0.465778,0,0,0.465778,-3668.07,-1430.83)">
            <g transform="matrix(114.377,0,0,114.377,8399.08,3978.25)">
                <path d="M0.548,-0.231L0.703,-0.171C0.677,-0.112 0.636,-0.067 0.582,-0.034C0.527,-0.001 0.463,0.015 0.391,0.015C0.292,0.015 0.207,-0.019 0.139,-0.086C0.07,-0.153 0.035,-0.236 0.035,-0.335C0.035,-0.433 0.07,-0.516 0.139,-0.584C0.207,-0.651 0.292,-0.685 0.391,-0.685C0.454,-0.685 0.513,-0.671 0.566,-0.644C0.619,-0.616 0.66,-0.577 0.689,-0.528L0.541,-0.455C0.508,-0.508 0.458,-0.534 0.391,-0.534C0.338,-0.534 0.293,-0.515 0.256,-0.477C0.219,-0.439 0.2,-0.392 0.2,-0.335C0.2,-0.278 0.219,-0.231 0.256,-0.193C0.293,-0.154 0.338,-0.135 0.391,-0.135C0.465,-0.135 0.517,-0.167 0.548,-0.231Z" style="fill:rgb(14,129,138);fill-rule:nonzero;"/>
            </g>
            <g transform="matrix(114.377,0,0,114.377,8483.27,3978.25)">
                <path d="M0.303,-0.515C0.38,-0.515 0.445,-0.49 0.498,-0.441C0.551,-0.392 0.578,-0.328 0.578,-0.251C0.578,-0.173 0.551,-0.109 0.498,-0.06C0.445,-0.011 0.38,0.014 0.303,0.014C0.225,0.014 0.159,-0.011 0.106,-0.06C0.052,-0.109 0.025,-0.173 0.025,-0.251C0.025,-0.328 0.052,-0.392 0.106,-0.441C0.159,-0.49 0.225,-0.515 0.303,-0.515ZM0.303,-0.121C0.336,-0.121 0.364,-0.133 0.388,-0.158C0.412,-0.182 0.424,-0.213 0.424,-0.251C0.424,-0.289 0.412,-0.32 0.388,-0.344C0.363,-0.369 0.335,-0.381 0.303,-0.381C0.27,-0.381 0.241,-0.369 0.216,-0.344C0.191,-0.32 0.179,-0.289 0.179,-0.251C0.179,-0.213 0.191,-0.182 0.216,-0.158C0.24,-0.133 0.269,-0.121 0.303,-0.121Z" style="fill:rgb(14,129,138);fill-rule:nonzero;"/>
            </g>
            <g transform="matrix(114.377,0,0,114.377,8552.24,3978.25)">
                <path d="M0.372,-0.517C0.431,-0.517 0.478,-0.498 0.514,-0.46C0.549,-0.421 0.567,-0.371 0.567,-0.308L0.567,-0L0.408,-0L0.408,-0.274C0.408,-0.303 0.4,-0.327 0.384,-0.345C0.368,-0.364 0.347,-0.373 0.322,-0.373C0.289,-0.373 0.264,-0.362 0.246,-0.339C0.227,-0.316 0.218,-0.28 0.218,-0.233L0.218,-0L0.058,-0L0.058,-0.502L0.218,-0.502L0.218,-0.454C0.259,-0.496 0.31,-0.517 0.372,-0.517Z" style="fill:rgb(14,129,138);fill-rule:nonzero;"/>
            </g>
            <g transform="matrix(114.377,0,0,114.377,8622.92,3978.25)">
                <path d="M0.372,-0.517C0.431,-0.517 0.478,-0.498 0.514,-0.46C0.549,-0.421 0.567,-0.371 0.567,-0.308L0.567,-0L0.408,-0L0.408,-0.274C0.408,-0.303 0.4,-0.327 0.384,-0.345C0.368,-0.364 0.347,-0.373 0.322,-0.373C0.289,-0.373 0.264,-0.362 0.246,-0.339C0.227,-0.316 0.218,-0.28 0.218,-0.233L0.218,-0L0.058,-0L0.058,-0.502L0.218,-0.502L0.218,-0.454C0.259,-0.496 0.31,-0.517 0.372,-0.517Z" style="fill:rgb(14,129,138);fill-rule:nonzero;"/>
            </g>
            <g transform="matrix(114.377,0,0,114.377,8693.61,3978.25)">
                <path d="M0.55,-0.251L0.55,-0.21L0.182,-0.21C0.189,-0.18 0.202,-0.156 0.223,-0.139C0.244,-0.122 0.268,-0.113 0.297,-0.113C0.342,-0.113 0.376,-0.128 0.399,-0.157L0.526,-0.097C0.478,-0.022 0.402,0.015 0.297,0.015C0.221,0.015 0.157,-0.01 0.104,-0.059C0.051,-0.109 0.025,-0.173 0.025,-0.251C0.025,-0.328 0.051,-0.392 0.102,-0.442C0.153,-0.492 0.216,-0.517 0.291,-0.517C0.364,-0.517 0.425,-0.493 0.474,-0.444C0.523,-0.395 0.549,-0.331 0.55,-0.251ZM0.291,-0.387C0.267,-0.387 0.245,-0.38 0.226,-0.366C0.206,-0.352 0.192,-0.333 0.185,-0.308L0.392,-0.308C0.384,-0.334 0.371,-0.354 0.353,-0.367C0.335,-0.38 0.314,-0.387 0.291,-0.387Z" style="fill:rgb(14,129,138);fill-rule:nonzero;"/>
            </g>
            <g transform="matrix(114.377,0,0,114.377,8759.37,3978.25)">
                <path d="M0.401,-0.192L0.545,-0.147C0.527,-0.097 0.496,-0.058 0.451,-0.029C0.406,0 0.356,0.015 0.299,0.015C0.222,0.015 0.158,-0.01 0.105,-0.059C0.051,-0.109 0.025,-0.173 0.025,-0.251C0.025,-0.328 0.051,-0.392 0.105,-0.442C0.158,-0.492 0.222,-0.517 0.299,-0.517C0.354,-0.517 0.403,-0.503 0.448,-0.475C0.492,-0.447 0.524,-0.409 0.543,-0.361L0.397,-0.312C0.379,-0.355 0.346,-0.377 0.299,-0.377C0.263,-0.377 0.234,-0.365 0.212,-0.342C0.19,-0.318 0.179,-0.288 0.179,-0.251C0.179,-0.214 0.19,-0.183 0.212,-0.16C0.234,-0.137 0.263,-0.125 0.299,-0.125C0.346,-0.125 0.38,-0.147 0.401,-0.192Z" style="fill:rgb(14,129,138);fill-rule:nonzero;"/>
            </g>
            <g transform="matrix(114.377,0,0,114.377,8824.57,3978.25)">
                <path d="M0.393,-0.148L0.43,-0.022C0.384,0.003 0.338,0.015 0.293,0.015C0.23,0.015 0.181,-0.002 0.146,-0.036C0.111,-0.07 0.093,-0.12 0.093,-0.185L0.093,-0.375L0.002,-0.375L0.002,-0.502L0.093,-0.502L0.093,-0.65L0.253,-0.65L0.253,-0.502L0.401,-0.502L0.401,-0.375L0.253,-0.375L0.253,-0.201C0.253,-0.152 0.275,-0.128 0.32,-0.128C0.345,-0.128 0.37,-0.135 0.393,-0.148Z" style="fill:rgb(14,129,138);fill-rule:nonzero;"/>
            </g>
            <g transform="matrix(114.377,0,0,114.377,8872.95,3978.25)">
                <path d="M0.55,-0.251L0.55,-0.21L0.182,-0.21C0.189,-0.18 0.202,-0.156 0.223,-0.139C0.244,-0.122 0.268,-0.113 0.297,-0.113C0.342,-0.113 0.376,-0.128 0.399,-0.157L0.526,-0.097C0.478,-0.022 0.402,0.015 0.297,0.015C0.221,0.015 0.157,-0.01 0.104,-0.059C0.051,-0.109 0.025,-0.173 0.025,-0.251C0.025,-0.328 0.051,-0.392 0.102,-0.442C0.153,-0.492 0.216,-0.517 0.291,-0.517C0.364,-0.517 0.425,-0.493 0.474,-0.444C0.523,-0.395 0.549,-0.331 0.55,-0.251ZM0.291,-0.387C0.267,-0.387 0.245,-0.38 0.226,-0.366C0.206,-0.352 0.192,-0.333 0.185,-0.308L0.392,-0.308C0.384,-0.334 0.371,-0.354 0.353,-0.367C0.335,-0.38 0.314,-0.387 0.291,-0.387Z" style="fill:rgb(14,129,138);fill-rule:nonzero;"/>
            </g>
            <g transform="matrix(114.377,0,0,114.377,8938.72,3978.25)">
                <path d="M0.426,-0.72L0.586,-0.72L0.586,-0L0.426,-0L0.426,-0.04C0.385,-0.003 0.333,0.015 0.27,0.015C0.202,0.015 0.144,-0.01 0.097,-0.059C0.049,-0.109 0.025,-0.173 0.025,-0.251C0.025,-0.328 0.049,-0.392 0.097,-0.442C0.144,-0.492 0.202,-0.517 0.27,-0.517C0.333,-0.517 0.385,-0.499 0.426,-0.462L0.426,-0.72ZM0.303,-0.121C0.336,-0.121 0.365,-0.133 0.39,-0.158C0.414,-0.182 0.426,-0.213 0.426,-0.251C0.426,-0.288 0.414,-0.319 0.39,-0.344C0.365,-0.369 0.336,-0.381 0.303,-0.381C0.268,-0.381 0.239,-0.369 0.216,-0.344C0.193,-0.32 0.182,-0.289 0.182,-0.251C0.182,-0.212 0.193,-0.181 0.216,-0.157C0.239,-0.133 0.268,-0.121 0.303,-0.121Z" style="fill:rgb(14,129,138);fill-rule:nonzero;"/>
            </g>
            <g transform="matrix(114.377,0,0,114.377,9038.91,3978.25)">
                <path d="M0.548,-0.231L0.703,-0.171C0.677,-0.112 0.636,-0.067 0.582,-0.034C0.527,-0.001 0.463,0.015 0.391,0.015C0.292,0.015 0.207,-0.019 0.139,-0.086C0.07,-0.153 0.035,-0.236 0.035,-0.335C0.035,-0.433 0.07,-0.516 0.139,-0.584C0.207,-0.651 0.292,-0.685 0.391,-0.685C0.454,-0.685 0.513,-0.671 0.566,-0.644C0.619,-0.616 0.66,-0.577 0.689,-0.528L0.541,-0.455C0.508,-0.508 0.458,-0.534 0.391,-0.534C0.338,-0.534 0.293,-0.515 0.256,-0.477C0.219,-0.439 0.2,-0.392 0.2,-0.335C0.2,-0.278 0.219,-0.231 0.256,-0.193C0.293,-0.154 0.338,-0.135 0.391,-0.135C0.465,-0.135 0.517,-0.167 0.548,-0.231Z" style="fill:rgb(14,129,138);fill-rule:nonzero;"/>
            </g>
            <g transform="matrix(114.377,0,0,114.377,9123.09,3978.25)">
                <path d="M0.303,-0.515C0.38,-0.515 0.445,-0.49 0.498,-0.441C0.551,-0.392 0.578,-0.328 0.578,-0.251C0.578,-0.173 0.551,-0.109 0.498,-0.06C0.445,-0.011 0.38,0.014 0.303,0.014C0.225,0.014 0.159,-0.011 0.106,-0.06C0.052,-0.109 0.025,-0.173 0.025,-0.251C0.025,-0.328 0.052,-0.392 0.106,-0.441C0.159,-0.49 0.225,-0.515 0.303,-0.515ZM0.303,-0.121C0.336,-0.121 0.364,-0.133 0.388,-0.158C0.412,-0.182 0.424,-0.213 0.424,-0.251C0.424,-0.289 0.412,-0.32 0.388,-0.344C0.363,-0.369 0.335,-0.381 0.303,-0.381C0.27,-0.381 0.241,-0.369 0.216,-0.344C0.191,-0.32 0.179,-0.289 0.179,-0.251C0.179,-0.213 0.191,-0.182 0.216,-0.158C0.24,-0.133 0.269,-0.121 0.303,-0.121Z" style="fill:rgb(14,129,138);fill-rule:nonzero;"/>
            </g>
            <g transform="matrix(114.377,0,0,114.377,9192.06,3978.25)">
                <path d="M0.708,-0.517C0.763,-0.517 0.808,-0.498 0.845,-0.461C0.882,-0.423 0.9,-0.374 0.9,-0.314L0.9,-0L0.741,-0L0.741,-0.28C0.741,-0.308 0.733,-0.331 0.717,-0.347C0.701,-0.365 0.681,-0.373 0.657,-0.373C0.627,-0.373 0.603,-0.362 0.586,-0.341C0.568,-0.319 0.559,-0.287 0.559,-0.246L0.559,-0L0.399,-0L0.399,-0.28C0.399,-0.308 0.391,-0.331 0.375,-0.347C0.359,-0.365 0.339,-0.373 0.314,-0.373C0.284,-0.373 0.261,-0.362 0.244,-0.341C0.227,-0.319 0.218,-0.287 0.218,-0.246L0.218,-0L0.058,-0L0.058,-0.502L0.218,-0.502L0.218,-0.456C0.255,-0.497 0.304,-0.517 0.366,-0.517C0.44,-0.517 0.495,-0.489 0.53,-0.432C0.573,-0.489 0.633,-0.517 0.708,-0.517Z" style="fill:rgb(14,129,138);fill-rule:nonzero;"/>
            </g>
            <g transform="matrix(114.377,0,0,114.377,9300.83,3978.25)">
                <path d="M0.708,-0.517C0.763,-0.517 0.808,-0.498 0.845,-0.461C0.882,-0.423 0.9,-0.374 0.9,-0.314L0.9,-0L0.741,-0L0.741,-0.28C0.741,-0.308 0.733,-0.331 0.717,-0.347C0.701,-0.365 0.681,-0.373 0.657,-0.373C0.627,-0.373 0.603,-0.362 0.586,-0.341C0.568,-0.319 0.559,-0.287 0.559,-0.246L0.559,-0L0.399,-0L0.399,-0.28C0.399,-0.308 0.391,-0.331 0.375,-0.347C0.359,-0.365 0.339,-0.373 0.314,-0.373C0.284,-0.373 0.261,-0.362 0.244,-0.341C0.227,-0.319 0.218,-0.287 0.218,-0.246L0.218,-0L0.058,-0L0.058,-0.502L0.218,-0.502L0.218,-0.456C0.255,-0.497 0.304,-0.517 0.366,-0.517C0.44,-0.517 0.495,-0.489 0.53,-0.432C0.573,-0.489 0.633,-0.517 0.708,-0.517Z" style="fill:rgb(14,129,138);fill-rule:nonzero;"/>
            </g>
            <g transform="matrix(114.377,0,0,114.377,9409.15,3978.25)">
                <path d="M0.4,-0.502L0.56,-0.502L0.56,-0L0.4,-0L0.4,-0.048C0.36,-0.006 0.309,0.015 0.246,0.015C0.187,0.015 0.14,-0.004 0.105,-0.043C0.069,-0.081 0.051,-0.131 0.051,-0.194L0.051,-0.502L0.21,-0.502L0.21,-0.228C0.21,-0.199 0.218,-0.175 0.234,-0.157C0.25,-0.138 0.271,-0.129 0.296,-0.129C0.329,-0.129 0.354,-0.141 0.373,-0.164C0.391,-0.187 0.4,-0.222 0.4,-0.269L0.4,-0.502Z" style="fill:rgb(14,129,138);fill-rule:nonzero;"/>
            </g>
            <g transform="matrix(114.377,0,0,114.377,9479.83,3978.25)">
                <path d="M0.372,-0.517C0.431,-0.517 0.478,-0.498 0.514,-0.46C0.549,-0.421 0.567,-0.371 0.567,-0.308L0.567,-0L0.408,-0L0.408,-0.274C0.408,-0.303 0.4,-0.327 0.384,-0.345C0.368,-0.364 0.347,-0.373 0.322,-0.373C0.289,-0.373 0.264,-0.362 0.246,-0.339C0.227,-0.316 0.218,-0.28 0.218,-0.233L0.218,-0L0.058,-0L0.058,-0.502L0.218,-0.502L0.218,-0.454C0.259,-0.496 0.31,-0.517 0.372,-0.517Z" style="fill:rgb(14,129,138);fill-rule:nonzero;"/>
            </g>
            <g transform="matrix(114.377,0,0,114.377,9550.52,3978.25)">
                <path d="M0.08,-0.715C0.097,-0.732 0.119,-0.741 0.146,-0.741C0.173,-0.741 0.195,-0.732 0.213,-0.714C0.23,-0.696 0.239,-0.675 0.239,-0.65C0.239,-0.625 0.23,-0.604 0.213,-0.587C0.195,-0.57 0.173,-0.561 0.146,-0.561C0.119,-0.561 0.097,-0.57 0.08,-0.587C0.063,-0.604 0.054,-0.625 0.054,-0.65C0.054,-0.675 0.063,-0.697 0.08,-0.715ZM0.226,-0.502L0.226,-0L0.066,-0L0.066,-0.502L0.226,-0.502Z" style="fill:rgb(14,129,138);fill-rule:nonzero;"/>
            </g>
            <g transform="matrix(114.377,0,0,114.377,9583.92,3978.25)">
                <path d="M0.393,-0.148L0.43,-0.022C0.384,0.003 0.338,0.015 0.293,0.015C0.23,0.015 0.181,-0.002 0.146,-0.036C0.111,-0.07 0.093,-0.12 0.093,-0.185L0.093,-0.375L0.002,-0.375L0.002,-0.502L0.093,-0.502L0.093,-0.65L0.253,-0.65L0.253,-0.502L0.401,-0.502L0.401,-0.375L0.253,-0.375L0.253,-0.201C0.253,-0.152 0.275,-0.128 0.32,-0.128C0.345,-0.128 0.37,-0.135 0.393,-0.148Z" style="fill:rgb(14,129,138);fill-rule:nonzero;"/>
            </g>
            <g transform="matrix(114.377,0,0,114.377,9633.44,3978.25)">
                <path d="M0.425,-0.503L0.597,-0.503L0.267,0.17L0.094,0.17L0.214,-0.073L0.007,-0.503L0.179,-0.503L0.302,-0.253L0.425,-0.503Z" style="fill:rgb(14,129,138);fill-rule:nonzero;"/>
            </g>
            <g transform="matrix(114.377,0,0,114.377,8680.22,4092.62)">
                <path d="M0.505,-0.67L0.669,-0.67L0.669,-0L0.505,-0L0.505,-0.265L0.223,-0.265L0.223,-0L0.058,-0L0.058,-0.67L0.223,-0.67L0.223,-0.409L0.505,-0.409L0.505,-0.67Z" style="fill:rgb(14,129,138);fill-rule:nonzero;"/>
            </g>
            <g transform="matrix(114.377,0,0,114.377,8763.49,4092.62)">
                <path d="M0.426,-0.502L0.586,-0.502L0.586,-0L0.426,-0L0.426,-0.04C0.385,-0.003 0.333,0.015 0.27,0.015C0.202,0.015 0.144,-0.01 0.097,-0.059C0.049,-0.109 0.025,-0.173 0.025,-0.251C0.025,-0.328 0.049,-0.392 0.097,-0.442C0.144,-0.492 0.202,-0.517 0.27,-0.517C0.333,-0.517 0.385,-0.499 0.426,-0.462L0.426,-0.502ZM0.303,-0.121C0.336,-0.121 0.365,-0.133 0.39,-0.158C0.414,-0.182 0.426,-0.213 0.426,-0.251C0.426,-0.288 0.414,-0.319 0.39,-0.344C0.365,-0.369 0.336,-0.381 0.303,-0.381C0.268,-0.381 0.239,-0.369 0.216,-0.344C0.193,-0.32 0.182,-0.289 0.182,-0.251C0.182,-0.212 0.193,-0.181 0.216,-0.157C0.239,-0.133 0.268,-0.121 0.303,-0.121Z" style="fill:rgb(14,129,138);fill-rule:nonzero;"/>
            </g>
            <g transform="matrix(114.377,0,0,114.377,8837.15,4092.62)">
                <path d="M0.401,-0.192L0.545,-0.147C0.527,-0.097 0.496,-0.058 0.451,-0.029C0.406,0 0.356,0.015 0.299,0.015C0.222,0.015 0.158,-0.01 0.105,-0.059C0.051,-0.109 0.025,-0.173 0.025,-0.251C0.025,-0.328 0.051,-0.392 0.105,-0.442C0.158,-0.492 0.222,-0.517 0.299,-0.517C0.354,-0.517 0.403,-0.503 0.448,-0.475C0.492,-0.447 0.524,-0.409 0.543,-0.361L0.397,-0.312C0.379,-0.355 0.346,-0.377 0.299,-0.377C0.263,-0.377 0.234,-0.365 0.212,-0.342C0.19,-0.318 0.179,-0.288 0.179,-0.251C0.179,-0.214 0.19,-0.183 0.212,-0.16C0.234,-0.137 0.263,-0.125 0.299,-0.125C0.346,-0.125 0.38,-0.147 0.401,-0.192Z" style="fill:rgb(14,129,138);fill-rule:nonzero;"/>
            </g>
            <g transform="matrix(114.377,0,0,114.377,8902.34,4092.62)">
                <path d="M0.349,-0.265L0.615,-0L0.397,-0L0.229,-0.181L0.218,-0.181L0.218,-0L0.058,-0L0.058,-0.72L0.218,-0.72L0.218,-0.331L0.226,-0.331L0.393,-0.502L0.592,-0.502L0.349,-0.265Z" style="fill:rgb(14,129,138);fill-rule:nonzero;"/>
            </g>
            <g transform="matrix(114.377,0,0,114.377,8968.57,4092.62)">
                <path d="M0.55,-0.251L0.55,-0.21L0.182,-0.21C0.189,-0.18 0.202,-0.156 0.223,-0.139C0.244,-0.122 0.268,-0.113 0.297,-0.113C0.342,-0.113 0.376,-0.128 0.399,-0.157L0.526,-0.097C0.478,-0.022 0.402,0.015 0.297,0.015C0.221,0.015 0.157,-0.01 0.104,-0.059C0.051,-0.109 0.025,-0.173 0.025,-0.251C0.025,-0.328 0.051,-0.392 0.102,-0.442C0.153,-0.492 0.216,-0.517 0.291,-0.517C0.364,-0.517 0.425,-0.493 0.474,-0.444C0.523,-0.395 0.549,-0.331 0.55,-0.251ZM0.291,-0.387C0.267,-0.387 0.245,-0.38 0.226,-0.366C0.206,-0.352 0.192,-0.333 0.185,-0.308L0.392,-0.308C0.384,-0.334 0.371,-0.354 0.353,-0.367C0.335,-0.38 0.314,-0.387 0.291,-0.387Z" style="fill:rgb(14,129,138);fill-rule:nonzero;"/>
            </g>
            <g transform="matrix(114.377,0,0,114.377,9034.34,4092.62)">
                <path d="M0.391,-0.509C0.404,-0.509 0.416,-0.508 0.427,-0.505L0.42,-0.345L0.391,-0.345C0.276,-0.345 0.218,-0.282 0.218,-0.157L0.218,-0L0.058,-0L0.058,-0.502L0.218,-0.502L0.218,-0.406C0.259,-0.475 0.317,-0.509 0.391,-0.509Z" style="fill:rgb(14,129,138);fill-rule:nonzero;"/>
            </g>
            <g transform="matrix(114.377,0,0,114.377,9084.2,4092.62)">
                <path d="M0.184,-0.153C0.194,-0.12 0.222,-0.104 0.269,-0.104C0.289,-0.104 0.305,-0.108 0.317,-0.116C0.328,-0.123 0.334,-0.133 0.334,-0.144C0.334,-0.163 0.318,-0.175 0.285,-0.181L0.187,-0.201C0.09,-0.22 0.041,-0.268 0.041,-0.347C0.041,-0.398 0.061,-0.44 0.101,-0.47C0.141,-0.501 0.193,-0.517 0.257,-0.517C0.312,-0.517 0.358,-0.507 0.396,-0.487C0.433,-0.466 0.46,-0.438 0.476,-0.402L0.334,-0.359C0.321,-0.388 0.294,-0.403 0.255,-0.403C0.235,-0.403 0.221,-0.399 0.212,-0.392C0.203,-0.384 0.198,-0.375 0.198,-0.364C0.198,-0.346 0.211,-0.334 0.236,-0.329L0.349,-0.305C0.442,-0.284 0.488,-0.234 0.488,-0.154C0.488,-0.1 0.467,-0.058 0.425,-0.029C0.383,0 0.328,0.015 0.26,0.015C0.205,0.015 0.157,0.005 0.116,-0.014C0.075,-0.033 0.047,-0.061 0.032,-0.1L0.184,-0.153Z" style="fill:rgb(14,129,138);fill-rule:nonzero;"/>
            </g>
            <g transform="matrix(114.377,0,0,114.377,9143.11,4092.62)">
                <path d="M0.374,-0.517C0.442,-0.517 0.5,-0.492 0.548,-0.442C0.595,-0.392 0.619,-0.328 0.619,-0.251C0.619,-0.173 0.595,-0.109 0.548,-0.059C0.5,-0.01 0.442,0.015 0.374,0.015C0.311,0.015 0.259,-0.003 0.218,-0.04L0.218,0.17L0.058,0.17L0.058,-0.502L0.218,-0.502L0.218,-0.462C0.259,-0.499 0.311,-0.517 0.374,-0.517ZM0.341,-0.121C0.376,-0.121 0.405,-0.133 0.428,-0.157C0.451,-0.181 0.462,-0.212 0.462,-0.251C0.462,-0.289 0.451,-0.32 0.428,-0.344C0.405,-0.369 0.376,-0.381 0.341,-0.381C0.308,-0.381 0.279,-0.369 0.255,-0.344C0.23,-0.319 0.218,-0.288 0.218,-0.251C0.218,-0.213 0.23,-0.182 0.255,-0.158C0.279,-0.133 0.308,-0.121 0.341,-0.121Z" style="fill:rgb(14,129,138);fill-rule:nonzero;"/>
            </g>
            <g transform="matrix(114.377,0,0,114.377,9216.77,4092.62)">
                <path d="M0.426,-0.502L0.586,-0.502L0.586,-0L0.426,-0L0.426,-0.04C0.385,-0.003 0.333,0.015 0.27,0.015C0.202,0.015 0.144,-0.01 0.097,-0.059C0.049,-0.109 0.025,-0.173 0.025,-0.251C0.025,-0.328 0.049,-0.392 0.097,-0.442C0.144,-0.492 0.202,-0.517 0.27,-0.517C0.333,-0.517 0.385,-0.499 0.426,-0.462L0.426,-0.502ZM0.303,-0.121C0.336,-0.121 0.365,-0.133 0.39,-0.158C0.414,-0.182 0.426,-0.213 0.426,-0.251C0.426,-0.288 0.414,-0.319 0.39,-0.344C0.365,-0.369 0.336,-0.381 0.303,-0.381C0.268,-0.381 0.239,-0.369 0.216,-0.344C0.193,-0.32 0.182,-0.289 0.182,-0.251C0.182,-0.212 0.193,-0.181 0.216,-0.157C0.239,-0.133 0.268,-0.121 0.303,-0.121Z" style="fill:rgb(14,129,138);fill-rule:nonzero;"/>
            </g>
            <g transform="matrix(114.377,0,0,114.377,9290.43,4092.62)">
                <path d="M0.401,-0.192L0.545,-0.147C0.527,-0.097 0.496,-0.058 0.451,-0.029C0.406,0 0.356,0.015 0.299,0.015C0.222,0.015 0.158,-0.01 0.105,-0.059C0.051,-0.109 0.025,-0.173 0.025,-0.251C0.025,-0.328 0.051,-0.392 0.105,-0.442C0.158,-0.492 0.222,-0.517 0.299,-0.517C0.354,-0.517 0.403,-0.503 0.448,-0.475C0.492,-0.447 0.524,-0.409 0.543,-0.361L0.397,-0.312C0.379,-0.355 0.346,-0.377 0.299,-0.377C0.263,-0.377 0.234,-0.365 0.212,-0.342C0.19,-0.318 0.179,-0.288 0.179,-0.251C0.179,-0.214 0.19,-0.183 0.212,-0.16C0.234,-0.137 0.263,-0.125 0.299,-0.125C0.346,-0.125 0.38,-0.147 0.401,-0.192Z" style="fill:rgb(14,129,138);fill-rule:nonzero;"/>
            </g>
            <g transform="matrix(114.377,0,0,114.377,9355.62,4092.62)">
                <path d="M0.55,-0.251L0.55,-0.21L0.182,-0.21C0.189,-0.18 0.202,-0.156 0.223,-0.139C0.244,-0.122 0.268,-0.113 0.297,-0.113C0.342,-0.113 0.376,-0.128 0.399,-0.157L0.526,-0.097C0.478,-0.022 0.402,0.015 0.297,0.015C0.221,0.015 0.157,-0.01 0.104,-0.059C0.051,-0.109 0.025,-0.173 0.025,-0.251C0.025,-0.328 0.051,-0.392 0.102,-0.442C0.153,-0.492 0.216,-0.517 0.291,-0.517C0.364,-0.517 0.425,-0.493 0.474,-0.444C0.523,-0.395 0.549,-0.331 0.55,-0.251ZM0.291,-0.387C0.267,-0.387 0.245,-0.38 0.226,-0.366C0.206,-0.352 0.192,-0.333 0.185,-0.308L0.392,-0.308C0.384,-0.334 0.371,-0.354 0.353,-0.367C0.335,-0.38 0.314,-0.387 0.291,-0.387Z" style="fill:rgb(14,129,138);fill-rule:nonzero;"/>
            </g>
        </g>
    </g>
</svg>
