<?xml version="1.0" encoding="UTF-8" standalone="no"?><!DOCTYPE svg PUBLIC "-//W3C//DTD SVG 1.1//EN" "http://www.w3.org/Graphics/SVG/1.1/DTD/svg11.dtd"><svg width="100%" height="100%" viewBox="0 0 1000 1500" version="1.1" xmlns="http://www.w3.org/2000/svg" xmlns:xlink="http://www.w3.org/1999/xlink" xml:space="preserve" xmlns:serif="http://www.serif.com/" style="fill-rule:evenodd;clip-rule:evenodd;stroke-linecap:round;stroke-linejoin:round;stroke-miterlimit:1.5;"><rect x="0" y="0" width="1000" height="204.009" style="fill:#fff;"/><g><path id="Fill-1" d="M268.958,29.056l-140.537,0l22.262,47.956l10.348,0l8.506,18.299l8.531,-18.299l10.374,0l-15.573,33.418l-6.638,0l32.458,69.865l33.216,-71.48c-2.653,1.523 -5.66,2.324 -8.72,2.324c-9.609,0 -17.516,-7.907 -17.516,-17.516c-0,-9.609 7.907,-17.517 17.516,-17.517c6.135,0 11.839,3.223 15.005,8.478l-7.825,4.695c-1.536,-2.52 -4.267,-4.077 -7.218,-4.114c-0.018,-0 -0.035,-0 -0.053,-0c-4.611,-0 -8.405,3.794 -8.405,8.405c0,4.611 3.794,8.405 8.405,8.405c2.994,-0 5.77,-1.6 7.271,-4.19l5.049,3.104l7.572,-16.052l-0,25.745l25.795,-0l-0,-8.33l-16.507,0l-0,-4.492l13.226,-0l-0,-8.128l-13.226,0l-0,-4.644l16.507,0l-0,-8.379l-21.909,-0l22.086,-47.553Zm-68.149,81.374l-9.591,0l0,-33.418l9.591,0l0,33.418Z" style="fill:#0e818a;fill-rule:nonzero;"/><path id="Fill-3" d="M88.012,108.79c2.54,-1.793 3.99,-4.77 3.836,-7.875c0.04,-1.658 -0.287,-3.305 -0.959,-4.821c-0.557,-1.244 -1.427,-2.322 -2.524,-3.13c-1.048,-0.756 -2.184,-1.384 -3.382,-1.868c-1.193,-0.497 -2.426,-0.894 -3.685,-1.186c-1.237,-0.278 -2.322,-0.555 -3.332,-0.808c-0.904,-0.192 -1.762,-0.56 -2.524,-1.085c-0.55,-0.359 -0.868,-0.985 -0.833,-1.641c0,-1.312 0.909,-2.094 2.524,-2.322c1.692,-0.223 3.413,-0.085 5.048,0.404c1.36,0.335 2.655,0.889 3.837,1.641l4.593,-6.689c-3.736,-2.463 -8.147,-3.707 -12.62,-3.559c-3.364,-0.1 -6.663,0.961 -9.338,3.004c-2.44,1.742 -3.875,4.575 -3.837,7.572c-0.05,1.81 0.395,3.599 1.287,5.174c0.81,1.292 1.94,2.353 3.282,3.079c1.322,0.757 2.707,1.398 4.139,1.919c1.35,0.506 2.733,0.919 4.139,1.236c1.111,0.216 2.178,0.617 3.155,1.187c0.722,0.349 1.197,1.067 1.237,1.867c0.048,0.81 -0.403,1.571 -1.136,1.919c-0.893,0.437 -1.886,0.628 -2.877,0.555c-1.21,-0.026 -2.417,-0.144 -3.609,-0.353c-1.115,-0.2 -2.201,-0.539 -3.231,-1.01c-0.744,-0.295 -1.428,-0.723 -2.019,-1.262l-4.846,7.042c4.117,2.614 8.932,3.917 13.806,3.736c3.486,0.149 6.931,-0.805 9.843,-2.726" style="fill:#0e818a;fill-rule:nonzero;"/><path id="Fill-4" d="M121.379,84.988l0,-8.379l-25.669,-0l-0,34.124l25.669,0l0,-8.38l-16.381,0l0,-4.593l13.226,-0l0,-8.178l-13.226,-0l0,-4.594l16.381,0Z" style="fill:#0e818a;fill-rule:nonzero;"/><path id="Fill-5" d="M143.969,91.753c-0.576,0.822 -1.52,1.313 -2.524,1.312l-5.881,0l-0,-8.077l5.931,0c1.005,-0 1.948,0.49 2.524,1.313c1.328,1.566 1.328,3.886 0,5.452m10.753,-2.726c0.086,-3.351 -1.276,-6.582 -3.736,-8.86c-2.462,-2.35 -5.759,-3.631 -9.162,-3.558l-15.624,-0l0,34.124l9.314,0l-0,-9.288l4.493,-0l4.24,9.288l10.449,0l-5.78,-11.459c3.602,-2.161 5.832,-6.047 5.881,-10.247" style="fill:#0e818a;fill-rule:nonzero;"/><path id="Fill-6" d="M262.067,128.3c-1.459,-0.921 -3.146,-1.42 -4.871,-1.439c-1.919,0 -3.282,0.758 -3.282,2.045c0,1.287 1.49,1.641 3.534,1.969l0.959,0.151c3.054,0.505 5.477,1.817 5.477,4.796c0,3.786 -3.331,5.603 -7.016,5.603c-2.594,0.057 -5.138,-0.732 -7.244,-2.246l1.792,-2.752c1.574,1.197 3.499,1.845 5.477,1.843c1.893,-0 3.382,-0.757 3.382,-2.07c-0,-1.312 -1.237,-1.615 -3.635,-1.994l-1.085,-0.176c-3.029,-0.48 -5.25,-1.818 -5.25,-4.897c0,-3.584 3.18,-5.427 6.84,-5.427c2.316,-0.032 4.593,0.598 6.563,1.818l-1.641,2.776Z" style="fill:#0e818a;fill-rule:nonzero;"/><path id="Fill-7" d="M274.637,132.086l-4.291,0l-0,4.316c-0,1.489 0.782,2.019 1.767,2.019c0.804,-0.057 1.579,-0.327 2.246,-0.782l1.161,2.524c-1.148,0.82 -2.527,1.253 -3.938,1.237c-2.927,-0 -4.442,-1.641 -4.442,-4.72l0,-4.594l-2.297,0l0,-2.827l2.297,0l0,-3.533l3.206,-0l-0,3.533l4.291,0l-0,2.827Z" style="fill:#0e818a;fill-rule:nonzero;"/><path id="Fill-8" d="M288.519,141.097l-3.13,-0l-0,-1.313c-0.873,1.056 -2.191,1.645 -3.559,1.59c-3.21,-0.289 -5.698,-3.011 -5.698,-6.234c-0,-3.222 2.488,-5.945 5.698,-6.234c1.373,-0.048 2.691,0.55 3.559,1.615l-0,-1.262l3.13,0l-0,11.838Zm-9.163,-6.033c0.094,1.62 1.452,2.903 3.075,2.903c1.689,0 3.079,-1.39 3.079,-3.079c-0,-1.688 -1.387,-3.077 -3.074,-3.079c-0.011,-0.001 -0.022,-0.001 -0.032,-0.001c-1.676,0 -3.054,1.379 -3.054,3.054c-0,0.068 0.002,0.135 0.006,0.202Z" style="fill:#0e818a;fill-rule:nonzero;"/><path id="Fill-9" d="M300.028,132.086l-4.316,0l-0,4.316c-0,1.489 0.782,2.019 1.792,2.019c0.805,-0.057 1.58,-0.327 2.246,-0.782l1.161,2.524c-1.146,0.822 -2.526,1.255 -3.937,1.237c-2.928,-0 -4.442,-1.641 -4.442,-4.72l-0,-4.594l-2.297,0l-0,-2.827l2.297,0l-0,-3.533l3.205,-0l0,3.533l4.316,0l-0.025,2.827Z" style="fill:#0e818a;fill-rule:nonzero;"/><path id="Fill-10" d="M313.254,135.064c0.018,0.354 0.018,0.707 -0,1.061l-8.481,-0c0.171,1.517 1.532,2.641 3.054,2.524c1.092,-0.005 2.151,-0.379 3.004,-1.061l1.867,2.045c-1.391,1.22 -3.198,1.862 -5.048,1.792c-0.025,0 -0.05,0 -0.075,0c-3.421,0 -6.235,-2.814 -6.235,-6.234c0,-3.392 2.768,-6.193 6.159,-6.235c0.013,0 0.025,0 0.038,0c3.143,0 5.729,2.587 5.729,5.73c0,0.126 -0.004,0.252 -0.012,0.378m-8.481,-1.085l5.25,0c0,-1.44 -1.185,-2.625 -2.625,-2.625c-1.44,0 -2.625,1.185 -2.625,2.625" style="fill:#0e818a;fill-rule:nonzero;"/><path id="Fill-11" d="M265.172,148.316l-2.524,2.524c-1.058,-1.112 -2.526,-1.741 -4.06,-1.741c-3.074,-0 -5.603,2.529 -5.603,5.603c-0,3.044 2.48,5.559 5.523,5.603c2.367,0.267 4.546,-1.427 4.871,-3.786l-4.366,-0l-0,-2.903l7.9,-0l0,0.959c0.012,0.185 0.019,0.37 0.019,0.556c-0,4.533 -3.713,8.272 -8.247,8.303c-4.763,-0.154 -8.597,-4.114 -8.597,-8.88c-0,-4.873 4.01,-8.884 8.884,-8.884c2.364,-0 4.634,0.944 6.3,2.62" style="fill:#0e818a;fill-rule:nonzero;"/><path id="Fill-12" d="M281.401,157.2c0.002,0.067 0.003,0.135 0.003,0.202c0,3.531 -2.905,6.436 -6.436,6.436c-3.531,0 -6.436,-2.905 -6.436,-6.436c-0,-3.53 2.903,-6.435 6.433,-6.436c0.084,-0.004 0.168,-0.005 0.252,-0.005c3.393,-0 6.184,2.791 6.184,6.183c0,0.019 0,0.037 -0,0.056m-9.591,-0c0.054,1.692 1.46,3.054 3.153,3.054c1.731,0 3.155,-1.424 3.155,-3.155c0,-1.73 -1.423,-3.154 -3.153,-3.155c-0.018,-0 -0.036,-0 -0.055,-0c-1.703,-0 -3.104,1.401 -3.104,3.104c-0,0.051 0.001,0.101 0.004,0.152" style="fill:#0e818a;fill-rule:nonzero;"/><path id="Fill-13" d="M290.134,163.131l-3.685,0l-4.695,-11.862l3.483,-0l3.08,8.48l3.104,-8.48l3.382,-0l-4.669,11.862Z" style="fill:#0e818a;fill-rule:nonzero;"/><path id="Fill-14" d="M306.919,157.175c0.018,0.353 0.018,0.707 -0,1.06l-8.506,-0c0.183,1.511 1.535,2.628 3.054,2.524c1.102,-0.02 2.164,-0.422 3.003,-1.136l1.868,2.044c-1.393,1.218 -3.199,1.86 -5.048,1.793c-0.025,-0 -0.05,-0 -0.076,-0c-3.42,-0 -6.234,-2.814 -6.234,-6.235c-0,-3.391 2.767,-6.193 6.159,-6.234c0.024,-0 0.048,-0.001 0.072,-0.001c3.143,0 5.73,2.587 5.73,5.73c-0,0.169 -0.008,0.337 -0.022,0.505m-8.481,-1.085l5.25,-0c-0.08,-1.327 -1.195,-2.375 -2.524,-2.373c-0.052,-0.003 -0.104,-0.004 -0.156,-0.004c-1.329,-0 -2.442,1.05 -2.52,2.377" style="fill:#0e818a;fill-rule:nonzero;"/><path id="Fill-15" d="M317.141,151.218l-0.404,3.155c-0.618,-0.25 -1.277,-0.379 -1.944,-0.378c-0.056,-0.004 -0.112,-0.006 -0.168,-0.006c-1.302,-0 -2.373,1.071 -2.373,2.372c0,0.095 0.006,0.19 0.017,0.284l0,6.461l-3.256,0l0,-11.863l3.105,0l-0,1.313c0.746,-1.089 2.015,-1.704 3.332,-1.616c0.565,-0.009 1.128,0.076 1.666,0.253" style="fill:#0e818a;fill-rule:nonzero;"/><path id="Fill-16" d="M330.064,155.585l-0,7.572l-3.231,-0l-0,-6.563c-0,-1.716 -0.858,-2.524 -2.322,-2.524c-0.002,0 -0.003,0 -0.005,0c-1.384,0 -2.524,1.14 -2.524,2.524c0,0.051 0.002,0.101 0.005,0.152l-0,6.486l-3.206,0l0,-11.963l3.105,-0l-0,1.464c0.789,-1.144 2.121,-1.796 3.508,-1.717c0.069,-0.003 0.138,-0.005 0.207,-0.005c2.423,0 4.417,1.994 4.417,4.417c0,0.069 -0.002,0.138 -0.005,0.207" style="fill:#0e818a;fill-rule:nonzero;"/><path id="Fill-17" d="M352.073,155.585l-0,7.572l-3.18,-0l-0,-6.563c-0,-1.716 -0.858,-2.524 -2.322,-2.524c-0.002,0 -0.003,0 -0.005,0c-1.385,0 -2.524,1.14 -2.524,2.524c0,0.051 0.002,0.101 0.005,0.152l-0,6.486l-3.181,0l0,-6.638c0,-1.716 -0.858,-2.524 -2.322,-2.524c-0.001,0 -0.003,0 -0.004,0c-1.385,0 -2.524,1.14 -2.524,2.524c-0,0.051 0.001,0.101 0.004,0.152l0,6.486l-3.205,0l-0,-11.963l3.13,-0l-0,1.464c0.781,-1.14 2.103,-1.792 3.483,-1.717c1.573,-0.059 3.068,0.707 3.937,2.019c0.898,-1.272 2.361,-2.03 3.918,-2.03c2.54,-0 4.662,2.018 4.79,4.554" style="fill:#0e818a;fill-rule:nonzero;"/><path id="Fill-18" d="M365.904,157.175c0.022,0.353 0.022,0.707 0,1.06l-8.43,-0c0.184,1.511 1.536,2.628 3.054,2.524c1.102,-0.022 2.163,-0.424 3.004,-1.136l1.868,2.044c-1.393,1.218 -3.199,1.86 -5.048,1.793c-0.026,-0 -0.051,-0 -0.076,-0c-3.42,-0 -6.235,-2.814 -6.235,-6.235c0,-3.391 2.768,-6.193 6.159,-6.234c0.025,-0 0.049,-0.001 0.073,-0.001c3.143,0 5.73,2.587 5.73,5.73c-0,0.169 -0.008,0.337 -0.023,0.505m-8.48,-1.085l5.249,-0c0,-1.44 -1.184,-2.625 -2.624,-2.625c-1.44,-0 -2.625,1.185 -2.625,2.625" style="fill:#0e818a;fill-rule:nonzero;"/><path id="Fill-19" d="M379.256,155.585l0,7.572l-3.205,-0l-0,-6.563c-0,-1.716 -0.858,-2.524 -2.322,-2.524c-0.002,0 -0.003,0 -0.005,0c-1.384,0 -2.524,1.14 -2.524,2.524c0,0.051 0.002,0.101 0.005,0.152l-0,6.486l-3.206,0l0,-11.963l3.105,-0l-0,1.464c0.789,-1.144 2.121,-1.796 3.508,-1.717c0.069,-0.003 0.138,-0.005 0.207,-0.005c2.423,0 4.417,1.994 4.417,4.417c0,0.069 -0.002,0.138 -0.005,0.207" style="fill:#0e818a;fill-rule:nonzero;"/><path id="Fill-20" d="M390.539,154.095l-4.291,0l-0,4.342c-0,1.464 0.782,2.019 1.767,2.019c0.804,-0.059 1.579,-0.329 2.246,-0.782l1.161,2.524c-1.144,0.829 -2.524,1.271 -3.937,1.262c-2.928,-0 -4.443,-1.666 -4.443,-4.72l0,-4.645l-2.296,0l-0,-2.826l2.296,-0l0,-3.585l3.206,0l-0,3.534l4.291,0l-0,2.877Z" style="fill:#0e818a;fill-rule:nonzero;"/></g><g><ellipse cx="500" cy="1093.55" rx="165.263" ry="59.142" style="fill:#dceaeb;stroke:#0e818a;stroke-width:22.72px;"/><path d="M599.763,956.085c31.658,-49.5 22.174,-114.732 -22.266,-153.174c-44.441,-38.443 -110.368,-38.443 -154.81,-0c-44.441,38.442 -53.922,103.674 -22.266,153.174l99.672,155.855l99.67,-155.855Z" style="fill:#dceaeb;stroke:#0e818a;stroke-width:22.72px;stroke-miterlimit:2;"/><path d="M548.233,892.365c0,-26.582 -21.554,-48.133 -48.14,-48.133c-26.588,-0 -48.141,21.551 -48.141,48.133c0,26.583 21.553,48.132 48.141,48.132c26.586,0 48.14,-21.549 48.14,-48.132Z" style="fill:none;stroke:#0e818a;stroke-width:22.72px;stroke-linecap:butt;stroke-linejoin:miter;stroke-miterlimit:2;"/></g><path d="M935.013,1248.36c0,-9.75 -7.904,-17.654 -17.654,-17.654c-112.017,0 -722.701,0 -834.718,0c-9.75,0 -17.654,7.904 -17.654,17.654c-0,22.728 -0,61.991 -0,84.718c-0,9.751 7.904,17.655 17.654,17.655c112.017,-0 722.701,-0 834.718,-0c9.75,-0 17.654,-7.904 17.654,-17.655c0,-22.727 0,-61.99 0,-84.718Z" style="fill:#0e818a;"/><g><path d="M886.275,1420l-0,-47.961" style="fill:none;stroke:#374a60;stroke-width:23.47px;"/><path d="M868.386,1420l0,-53.406" style="fill:none;stroke:#374a60;stroke-width:23.47px;"/><path d="M851.794,1329.78l0,90.219l-25.666,-25.407l25.666,25.407l49.258,0l-0,-43.295" style="fill:none;stroke:#374a60;stroke-width:23.47px;"/></g><g><path d="M243.244,1295.23l5.751,2.439c-1.258,2.576 -3.106,4.57 -5.544,5.981c-2.439,1.411 -5.176,2.116 -8.213,2.116c-4.54,0 -8.374,-1.549 -11.502,-4.647c-3.129,-3.098 -4.693,-6.916 -4.693,-11.456c-0,-4.509 1.564,-8.32 4.693,-11.433c3.128,-3.114 6.962,-4.67 11.502,-4.67c2.761,-0 5.291,0.598 7.592,1.794c2.3,1.196 4.14,2.868 5.521,5.015l-5.567,2.899c-1.687,-2.546 -4.203,-3.819 -7.546,-3.819c-2.791,-0 -5.138,0.974 -7.039,2.922c-1.902,1.947 -2.853,4.378 -2.853,7.292c-0,2.914 0.958,5.353 2.876,7.316c1.917,1.963 4.255,2.944 7.016,2.944c3.742,0 6.411,-1.564 8.006,-4.693Z" style="fill:#fff;fill-rule:nonzero;"/><path d="M264.822,1281.57c3.436,0 6.357,1.128 8.765,3.382c2.408,2.255 3.612,5.145 3.612,8.673c-0,3.527 -1.204,6.418 -3.612,8.673c-2.408,2.254 -5.329,3.381 -8.765,3.381c-3.497,0 -6.457,-1.127 -8.88,-3.381c-2.423,-2.255 -3.634,-5.146 -3.634,-8.673c-0,-3.528 1.211,-6.418 3.634,-8.673c2.423,-2.254 5.383,-3.382 8.88,-3.382Zm0,18.91c1.687,0 3.19,-0.636 4.509,-1.909c1.319,-1.273 1.978,-2.922 1.978,-4.946c0,-2.025 -0.659,-3.673 -1.978,-4.946c-1.319,-1.273 -2.822,-1.91 -4.509,-1.91c-1.748,0 -3.29,0.629 -4.624,1.887c-1.334,1.257 -2.001,2.914 -2.001,4.969c-0,2.055 0.667,3.711 2.001,4.969c1.334,1.258 2.876,1.886 4.624,1.886Z" style="fill:#fff;fill-rule:nonzero;"/><path d="M295.096,1281.43c2.761,0 4.985,0.898 6.672,2.692c1.687,1.794 2.53,4.118 2.53,6.97l0,13.987l-6.073,0l0,-12.698c0,-1.626 -0.422,-2.93 -1.265,-3.911c-0.844,-0.982 -1.971,-1.472 -3.382,-1.472c-3.803,-0 -5.705,2.637 -5.705,7.913l-0,10.168l-6.073,0l-0,-22.959l6.073,0l-0,2.071c1.84,-1.84 4.248,-2.761 7.223,-2.761Z" style="fill:#fff;fill-rule:nonzero;"/><path d="M325.095,1299.01l1.748,5.061c-2.116,1.135 -4.11,1.702 -5.981,1.702c-2.822,0 -5.031,-0.759 -6.626,-2.277c-1.595,-1.518 -2.392,-3.811 -2.392,-6.878l-0,-9.524l-4.923,-0l-0,-4.97l4.923,0l-0,-6.947l6.073,0l0,6.947l7.5,0l-0,4.97l-7.5,-0l0,9.063c0,2.638 1.12,3.957 3.359,3.957c1.165,0 2.438,-0.368 3.819,-1.104Z" style="fill:#fff;fill-rule:nonzero;"/><path d="M346.673,1282.12l6.073,0l0,22.959l-6.073,0l0,-1.794c-2.055,1.656 -4.585,2.484 -7.591,2.484c-3.037,0 -5.675,-1.15 -7.914,-3.45c-2.239,-2.301 -3.359,-5.199 -3.359,-8.696c0,-3.497 1.127,-6.403 3.382,-8.719c2.254,-2.316 4.885,-3.474 7.891,-3.474c3.036,0 5.567,0.844 7.591,2.531l0,-1.841Zm-6.533,18.358c1.717,0 3.236,-0.636 4.555,-1.909c1.319,-1.273 1.978,-2.922 1.978,-4.946c0,-2.025 -0.659,-3.681 -1.978,-4.969c-1.319,-1.288 -2.838,-1.933 -4.555,-1.933c-1.871,0 -3.413,0.629 -4.624,1.887c-1.212,1.257 -1.818,2.929 -1.818,5.015c0,2.086 0.606,3.75 1.818,4.992c1.211,1.242 2.753,1.863 4.624,1.863Z" style="fill:#fff;fill-rule:nonzero;"/><path d="M375.061,1296.89l5.521,1.978c-0.889,2.116 -2.323,3.796 -4.302,5.038c-1.978,1.242 -4.194,1.863 -6.648,1.863c-3.435,0 -6.342,-1.134 -8.719,-3.404c-2.377,-2.27 -3.566,-5.184 -3.566,-8.742c0,-3.558 1.189,-6.48 3.566,-8.765c2.377,-2.285 5.284,-3.428 8.719,-3.428c2.362,0 4.509,0.591 6.441,1.772c1.933,1.181 3.39,2.799 4.371,4.854l-5.613,2.162c-0.951,-2.147 -2.684,-3.22 -5.199,-3.22c-1.902,-0 -3.443,0.613 -4.624,1.84c-1.181,1.227 -1.771,2.822 -1.771,4.785c-0,1.963 0.59,3.55 1.771,4.762c1.181,1.211 2.722,1.817 4.624,1.817c2.484,0 4.294,-1.104 5.429,-3.312Z" style="fill:#fff;fill-rule:nonzero;"/><path d="M400.136,1299.01l1.749,5.061c-2.117,1.135 -4.111,1.702 -5.982,1.702c-2.822,0 -5.03,-0.759 -6.625,-2.277c-1.595,-1.518 -2.393,-3.811 -2.393,-6.878l0,-9.524l-4.923,-0l0,-4.97l4.923,0l0,-6.947l6.074,0l-0,6.947l7.499,0l0,4.97l-7.499,-0l-0,9.063c-0,2.638 1.119,3.957 3.358,3.957c1.166,0 2.439,-0.368 3.819,-1.104Z" style="fill:#fff;fill-rule:nonzero;"/><path d="M431.285,1299.01l1.748,5.061c-2.116,1.135 -4.11,1.702 -5.981,1.702c-2.822,0 -5.031,-0.759 -6.626,-2.277c-1.595,-1.518 -2.392,-3.811 -2.392,-6.878l-0,-9.524l-4.923,-0l-0,-4.97l4.923,0l-0,-6.947l6.073,0l0,6.947l7.5,0l-0,4.97l-7.5,-0l0,9.063c0,2.638 1.12,3.957 3.359,3.957c1.166,0 2.438,-0.368 3.819,-1.104Z" style="fill:#fff;fill-rule:nonzero;"/><path d="M450.609,1281.8c0.705,0 1.242,0.062 1.61,0.184l-0.322,5.844l-1.334,-0c-5.46,-0 -8.19,3.282 -8.19,9.846l0,7.407l-6.073,0l-0,-22.959l6.073,0l0,4.187c2.086,-3.006 4.831,-4.509 8.236,-4.509Z" style="fill:#fff;fill-rule:nonzero;"/><path d="M472.831,1282.12l6.074,0l-0,22.959l-6.074,0l0,-1.794c-2.055,1.656 -4.585,2.484 -7.591,2.484c-3.037,0 -5.675,-1.15 -7.914,-3.45c-2.239,-2.301 -3.359,-5.199 -3.359,-8.696c0,-3.497 1.128,-6.403 3.382,-8.719c2.255,-2.316 4.885,-3.474 7.891,-3.474c3.036,0 5.567,0.844 7.591,2.531l0,-1.841Zm-6.533,18.358c1.718,0 3.236,-0.636 4.555,-1.909c1.319,-1.273 1.978,-2.922 1.978,-4.946c0,-2.025 -0.659,-3.681 -1.978,-4.969c-1.319,-1.288 -2.837,-1.933 -4.555,-1.933c-1.871,0 -3.412,0.629 -4.624,1.887c-1.212,1.257 -1.817,2.929 -1.817,5.015c-0,2.086 0.605,3.75 1.817,4.992c1.212,1.242 2.753,1.863 4.624,1.863Z" style="fill:#fff;fill-rule:nonzero;"/><path d="M501.219,1296.89l5.521,1.978c-0.889,2.116 -2.323,3.796 -4.301,5.038c-1.979,1.242 -4.195,1.863 -6.649,1.863c-3.435,0 -6.342,-1.134 -8.719,-3.404c-2.377,-2.27 -3.565,-5.184 -3.565,-8.742c-0,-3.558 1.188,-6.48 3.565,-8.765c2.377,-2.285 5.284,-3.428 8.719,-3.428c2.362,0 4.509,0.591 6.441,1.772c1.933,1.181 3.39,2.799 4.371,4.854l-5.613,2.162c-0.951,-2.147 -2.684,-3.22 -5.199,-3.22c-1.902,-0 -3.443,0.613 -4.624,1.84c-1.181,1.227 -1.771,2.822 -1.771,4.785c-0,1.963 0.59,3.55 1.771,4.762c1.181,1.211 2.722,1.817 4.624,1.817c2.485,0 4.294,-1.104 5.429,-3.312Z" style="fill:#fff;fill-rule:nonzero;"/><path d="M512.078,1272.71c0.705,-0.721 1.579,-1.082 2.622,-1.082c1.043,0 1.917,0.361 2.623,1.082c0.705,0.72 1.058,1.572 1.058,2.553c-0,1.012 -0.353,1.856 -1.058,2.531c-0.706,0.674 -1.58,1.012 -2.623,1.012c-1.074,-0 -1.955,-0.338 -2.645,-1.012c-0.691,-0.675 -1.036,-1.519 -1.036,-2.531c0,-0.981 0.353,-1.833 1.059,-2.553Zm5.659,9.408l-0,22.959l-6.074,0l0,-22.959l6.074,0Z" style="fill:#fff;fill-rule:nonzero;"/><path d="M537.797,1281.43c2.76,0 4.984,0.898 6.671,2.692c1.687,1.794 2.531,4.118 2.531,6.97l-0,13.987l-6.073,0l-0,-12.698c-0,-1.626 -0.422,-2.93 -1.266,-3.911c-0.843,-0.982 -1.97,-1.472 -3.381,-1.472c-3.804,-0 -5.706,2.637 -5.706,7.913l0,10.168l-6.073,0l0,-22.959l6.073,0l0,2.071c1.841,-1.84 4.249,-2.761 7.224,-2.761Z" style="fill:#fff;fill-rule:nonzero;"/><path d="M575.203,1282.12l0.046,20.751c-0,3.435 -1.174,6.119 -3.52,8.051c-2.347,1.933 -5.437,2.899 -9.271,2.899c-4.172,0 -7.377,-1.073 -9.616,-3.221l3.773,-4.509c1.871,1.503 3.788,2.255 5.751,2.255c2.086,-0 3.773,-0.575 5.061,-1.725c1.288,-1.151 1.932,-2.707 1.932,-4.67l0,-0.368c-1.748,1.41 -4.156,2.116 -7.223,2.116c-2.945,-0 -5.537,-1.089 -7.776,-3.267c-2.239,-2.177 -3.358,-4.815 -3.358,-7.913c-0,-3.068 1.119,-5.683 3.358,-7.845c2.239,-2.162 4.831,-3.244 7.776,-3.244c3.006,0 5.414,0.706 7.223,2.117l0,-1.427l5.844,0Zm-12.009,16.38c1.656,-0 3.098,-0.56 4.325,-1.679c1.227,-1.12 1.84,-2.554 1.84,-4.302c0,-1.749 -0.613,-3.183 -1.84,-4.302c-1.227,-1.12 -2.669,-1.68 -4.325,-1.68c-1.84,0 -3.359,0.553 -4.555,1.657c-1.196,1.104 -1.794,2.546 -1.794,4.325c-0,1.779 0.598,3.22 1.794,4.325c1.196,1.104 2.715,1.656 4.555,1.656Z" style="fill:#fff;fill-rule:nonzero;"/><path d="M608.744,1296.89l5.521,1.978c-0.89,2.116 -2.324,3.796 -4.302,5.038c-1.979,1.242 -4.195,1.863 -6.649,1.863c-3.435,0 -6.341,-1.134 -8.718,-3.404c-2.377,-2.27 -3.566,-5.184 -3.566,-8.742c-0,-3.558 1.189,-6.48 3.566,-8.765c2.377,-2.285 5.283,-3.428 8.718,-3.428c2.362,0 4.509,0.591 6.442,1.772c1.932,1.181 3.389,2.799 4.371,4.854l-5.613,2.162c-0.951,-2.147 -2.684,-3.22 -5.2,-3.22c-1.901,-0 -3.443,0.613 -4.623,1.84c-1.181,1.227 -1.772,2.822 -1.772,4.785c0,1.963 0.591,3.55 1.772,4.762c1.18,1.211 2.722,1.817 4.623,1.817c2.485,0 4.295,-1.104 5.43,-3.312Z" style="fill:#fff;fill-rule:nonzero;"/><path d="M632.162,1281.43c2.761,0 4.985,0.898 6.672,2.692c1.687,1.794 2.53,4.118 2.53,6.97l0,13.987l-6.073,0l0,-12.698c0,-1.626 -0.422,-2.93 -1.265,-3.911c-0.844,-0.982 -1.971,-1.472 -3.382,-1.472c-3.803,-0 -5.705,2.637 -5.705,7.913l-0,10.168l-6.073,0l-0,-33.127l6.073,0l-0,12.239c1.84,-1.84 4.248,-2.761 7.223,-2.761Z" style="fill:#fff;fill-rule:nonzero;"/><path d="M668.924,1293.16l0,2.07l-17.484,0c0.307,1.626 1.005,2.922 2.094,3.888c1.089,0.966 2.385,1.449 3.888,1.449c2.392,0 4.217,-0.767 5.475,-2.3l4.831,2.392c-2.178,3.405 -5.613,5.107 -10.306,5.107c-3.405,0 -6.258,-1.134 -8.558,-3.404c-2.301,-2.27 -3.451,-5.184 -3.451,-8.742c0,-3.558 1.143,-6.48 3.428,-8.765c2.285,-2.285 5.099,-3.428 8.443,-3.428c3.128,0 5.82,1.097 8.074,3.29c2.255,2.193 3.443,5.007 3.566,8.443Zm-11.64,-6.442c-1.258,0 -2.431,0.369 -3.52,1.105c-1.089,0.736 -1.802,1.779 -2.139,3.128l11.088,0c-0.399,-1.411 -1.081,-2.469 -2.048,-3.174c-0.966,-0.706 -2.093,-1.059 -3.381,-1.059Z" style="fill:#fff;fill-rule:nonzero;"/><path d="M689.398,1296.89l5.522,1.978c-0.89,2.116 -2.324,3.796 -4.302,5.038c-1.979,1.242 -4.195,1.863 -6.649,1.863c-3.435,0 -6.341,-1.134 -8.719,-3.404c-2.377,-2.27 -3.565,-5.184 -3.565,-8.742c-0,-3.558 1.188,-6.48 3.565,-8.765c2.378,-2.285 5.284,-3.428 8.719,-3.428c2.362,0 4.509,0.591 6.442,1.772c1.932,1.181 3.389,2.799 4.37,4.854l-5.613,2.162c-0.951,-2.147 -2.684,-3.22 -5.199,-3.22c-1.901,-0 -3.443,0.613 -4.624,1.84c-1.181,1.227 -1.771,2.822 -1.771,4.785c-0,1.963 0.59,3.55 1.771,4.762c1.181,1.211 2.723,1.817 4.624,1.817c2.485,0 4.294,-1.104 5.429,-3.312Z" style="fill:#fff;fill-rule:nonzero;"/><path d="M710.563,1292.93l13.205,12.146l-8.696,0l-9.248,-8.972l-0.23,0l-0,8.972l-6.074,0l0,-33.127l6.074,0l-0,18.174l0.368,0l8.696,-8.006l7.913,0l-12.008,10.813Z" style="fill:#fff;fill-rule:nonzero;"/><rect x="724.228" y="1290.72" width="15.091" height="5.245" style="fill:#fff;fill-rule:nonzero;"/><path d="M746.036,1272.71c0.706,-0.721 1.58,-1.082 2.623,-1.082c1.043,0 1.917,0.361 2.622,1.082c0.706,0.72 1.058,1.572 1.058,2.553c0,1.012 -0.352,1.856 -1.058,2.531c-0.705,0.674 -1.579,1.012 -2.622,1.012c-1.074,-0 -1.956,-0.338 -2.646,-1.012c-0.69,-0.675 -1.035,-1.519 -1.035,-2.531c-0,-0.981 0.353,-1.833 1.058,-2.553Zm5.659,9.408l0,22.959l-6.073,0l0,-22.959l6.073,0Z" style="fill:#fff;fill-rule:nonzero;"/><path d="M771.755,1281.43c2.761,0 4.985,0.898 6.672,2.692c1.687,1.794 2.53,4.118 2.53,6.97l0,13.987l-6.073,0l0,-12.698c0,-1.626 -0.422,-2.93 -1.265,-3.911c-0.844,-0.982 -1.971,-1.472 -3.382,-1.472c-3.803,-0 -5.705,2.637 -5.705,7.913l-0,10.168l-6.073,0l-0,-22.959l6.073,0l-0,2.071c1.84,-1.84 4.248,-2.761 7.223,-2.761Z" style="fill:#fff;fill-rule:nonzero;"/></g><g><path d="M344.606,603.655l0.195,-94.694l147.708,-0.194l147.708,-0.194l-0,189.777l-295.806,0l0.195,-94.695Z" style="fill:#0e818a;"/><path d="M389.258,661.082c0.636,-0.636 1.335,-1.76 1.554,-2.497c0.218,-0.737 1.307,-4.622 2.419,-8.633c1.112,-4.011 2.426,-7.55 2.919,-7.864c0.493,-0.313 6.33,-0.575 12.971,-0.582l12.074,-0.011l2.776,9.028c1.683,5.477 3.389,9.556 4.337,10.372c1.287,1.108 3.08,1.345 10.193,1.345c7.501,-0 8.804,-0.192 9.951,-1.459c1.258,-1.389 0.669,-3.894 -12.472,-53.081c-7.586,-28.393 -14.193,-52.025 -14.683,-52.516c-0.567,-0.569 -4.862,-0.981 -11.842,-1.138c-9.709,-0.219 -11.134,-0.088 -12.557,1.152c-1.198,1.044 -2.912,6.365 -6.762,20.991c-2.837,10.775 -8.925,33.552 -13.53,50.615c-4.604,17.063 -8.371,31.601 -8.371,32.307c-0,2.657 1.635,3.129 10.855,3.129c7.001,-0 9.269,-0.258 10.168,-1.157l-0,-0.001Zm12.014,-43.651c-0,-1.566 5.323,-29.226 6.606,-34.328c0.455,-1.812 0.52,-1.833 1.135,-0.384c0.358,0.845 2.069,8.797 3.801,17.671c1.732,8.874 3.325,16.74 3.539,17.479c0.352,1.218 -0.344,1.345 -7.346,1.345c-7.579,0 -7.735,-0.034 -7.735,-1.783l-0,-0Z" style="fill:#fff;"/><path d="M481.227,661.444c1.409,-0.754 1.486,-1.803 1.486,-20.298c-0,-10.726 0.21,-20.049 0.466,-20.717c0.387,-1.006 1.938,-1.218 9.028,-1.229c14.018,-0.022 21.84,-2.346 28.476,-8.463c10.174,-9.379 12.695,-27.199 5.77,-40.795c-2.203,-4.327 -8.305,-9.926 -13.432,-12.325c-6.203,-2.903 -12.808,-3.658 -32.25,-3.686c-13.406,-0.017 -16.446,0.18 -17.863,1.172l-1.708,1.196l0,51.565c0,46.904 0.115,51.692 1.272,52.97c1.077,1.19 2.497,1.405 9.27,1.405c4.399,0 8.668,-0.358 9.485,-0.795l-0,-0Zm1.952,-65.727c-0.887,-2.312 -0.512,-17.639 0.456,-18.607c1.102,-1.102 11.85,-1.218 16.365,-0.176c4.658,1.075 7.299,4.45 7.299,9.328c-0,4.468 -1.533,7.578 -4.641,9.414c-3.052,1.803 -18.79,1.836 -19.479,0.039l0,0.002Z" style="fill:#fff;"/><path d="M565.52,661.043c1.691,-1.185 1.707,-1.389 1.707,-21.513l0,-20.316l8.26,-0.005c15.807,-0.011 23.549,-2.565 30.499,-10.073c5.431,-5.866 7.459,-11.102 7.933,-20.488c0.735,-14.531 -5.273,-25.472 -17,-30.96c-6.37,-2.981 -12.818,-3.728 -32.402,-3.757c-13.406,-0.017 -16.446,0.179 -17.863,1.172l-1.708,1.196l0,103.548l1.708,1.196c1.27,0.89 3.684,1.196 9.433,1.196c5.748,0 8.162,-0.306 9.433,-1.196l-0,0Zm1.877,-74.291l0.214,-10.18l8.522,0.023c9.49,0.028 11.462,0.75 14.177,5.204c2.755,4.518 1.241,10.836 -3.252,13.576c-2.153,1.313 -3.873,1.551 -11.209,1.553l-8.666,0.003l0.214,-10.179Z" style="fill:#fff;"/><path d="M150.802,491.674l0,-189.773l698.396,-0l-0,189.773l-698.396,-0Z" style="fill:#0e818a;"/><path d="M470.42,456.157c8.304,-1.975 17.64,-9.076 21.219,-16.138c3.607,-7.118 5.362,-18.264 3.213,-20.413c-0.612,-0.612 -3.949,-0.922 -9.933,-0.922c-9.772,0 -11.426,0.613 -11.426,4.231c0,4.467 -3.18,9.025 -7.613,10.912c-4.063,1.729 -11.037,1.404 -14.759,-0.689c-3.986,-2.239 -5.116,-4.487 -6.16,-12.248c-1.028,-7.632 -0.441,-39.014 0.804,-43.042c1.138,-3.679 5.031,-7.409 8.465,-8.108c10.026,-2.042 17.711,2.088 18.923,10.168c0.758,5.059 2.146,5.739 11.702,5.739c9.978,-0 10.919,-0.452 10.919,-5.244c0,-9.031 -4.11,-18.139 -11,-24.374c-12.897,-11.671 -35.847,-12.152 -49.673,-1.041c-4.483,3.602 -8.291,9.593 -10.497,16.513c-4.072,12.775 -4.275,47.137 -0.358,60.499c5.759,19.642 24.325,29.355 46.174,24.157l-0,0Z" style="fill:#fff;"/><path d="M219.253,455.961c11.798,-3.382 20.457,-11.931 23.33,-23.032c1.415,-5.467 1.544,-12.041 0.263,-13.323c-0.611,-0.611 -3.935,-0.922 -9.869,-0.922c-10.141,0 -10.929,0.386 -11.75,5.745c-1.156,7.546 -8.457,11.904 -17.23,10.284c-7.87,-1.454 -10.076,-4.993 -11.091,-17.789c-0.828,-10.432 -0.219,-33.885 0.997,-38.446c1.246,-4.668 4.948,-8.069 9.75,-8.955c5.241,-0.968 10.679,0.164 13.543,2.82c2.427,2.25 4.291,6.164 4.291,9.01c-0,3.365 2.499,4.294 11.549,4.294c10.798,-0 11.11,-0.237 10.526,-7.955c-0.995,-13.159 -9.529,-24.095 -22.354,-28.645c-5.137,-1.822 -12.979,-2.506 -19.495,-1.7c-16.228,2.006 -27.51,13.332 -30.563,30.684c-1.568,8.908 -1.568,39.361 -0,48.269c3.024,17.184 13.864,28.361 29.902,30.831c4.815,0.742 13.475,0.185 18.201,-1.17l0,0Z" style="fill:#fff;"/><path d="M526.936,455.242c1.397,-1.021 1.516,-2.434 1.876,-22.397l0.384,-21.307l14.919,21.671c8.206,11.919 15.53,21.997 16.276,22.397c0.747,0.399 5.279,0.726 10.072,0.726c9.676,-0 12.13,-0.871 12.13,-4.305c0,-1.277 -5.275,-9.106 -15.89,-23.582c-19.182,-26.158 -19.452,-26.549 -19.452,-28.156c0,-0.702 7.779,-11.425 17.287,-23.828c10.165,-13.26 17.287,-23.23 17.287,-24.2c0,-3.112 -1.313,-3.493 -12.044,-3.493l-10.201,-0l-2.899,3.671c-1.595,2.018 -8.431,11.186 -15.192,20.373l-12.293,16.702l-0.384,-19.413c-0.212,-10.677 -0.664,-19.845 -1.006,-20.373c-0.853,-1.317 -19.04,-1.352 -20.353,-0.038c-0.699,0.699 -0.922,13.381 -0.922,52.377c-0,46.801 0.115,51.582 1.271,52.86c1.08,1.193 2.503,1.405 9.457,1.405c5.853,-0 8.611,-0.311 9.677,-1.09l0,0Z" style="fill:#fff;"/><path d="M408.187,454.795c1.342,-1.343 1.536,-2.561 1.536,-9.654c0,-4.465 -0.358,-8.787 -0.795,-9.604c-0.757,-1.415 -1.824,-1.486 -22.187,-1.486c-17.339,-0 -21.56,-0.203 -22.279,-1.07c-0.59,-0.711 -0.815,-4.12 -0.67,-10.18l0.217,-9.111l20.681,-0.205c13.688,-0.135 21.027,-0.492 21.705,-1.054c1.411,-1.171 1.468,-19.491 0.063,-20.4c-0.528,-0.342 -10.295,-0.795 -21.705,-1.006l-20.744,-0.384l-0.224,-8.452c-0.123,-4.648 -0.029,-9.229 0.207,-10.18l0.43,-1.728l21.471,-0c20.442,-0 21.51,-0.072 22.267,-1.486c0.437,-0.818 0.795,-4.989 0.795,-9.271c0,-4.281 -0.358,-8.453 -0.795,-9.27c-0.767,-1.432 -1.941,-1.486 -32.5,-1.486c-23.634,-0 -31.939,0.235 -32.626,0.922c-0.699,0.699 -0.922,13.381 -0.922,52.377c-0,46.801 0.115,51.582 1.271,52.86c1.192,1.316 3.215,1.405 32.27,1.405c29.973,-0 31.048,-0.051 32.534,-1.537l-0,-0Z" style="fill:#fff;"/><path d="M778.942,455.242c1.417,-1.035 1.511,-2.5 1.876,-29.164l0.384,-28.074l11.124,27.435c6.186,15.255 11.884,28.203 12.835,29.164c1.598,1.616 2.359,1.729 11.678,1.729c8.037,-0 10.201,-0.234 11.175,-1.208c1.074,-1.073 1.207,-6.933 1.207,-52.919c0,-43.221 -0.175,-51.858 -1.068,-52.599c-0.714,-0.593 -4.22,-0.815 -10.564,-0.67l-9.496,0.216l-0.201,30.319c-0.111,16.675 -0.468,30.585 -0.793,30.911c-0.326,0.326 -5.545,-12.689 -11.599,-28.922c-6.053,-16.232 -11.507,-30.229 -12.119,-31.103c-1.037,-1.48 -1.864,-1.589 -12.057,-1.589c-7.487,-0 -11.234,0.291 -11.865,0.922c-0.699,0.699 -0.922,13.381 -0.922,52.377c-0,46.801 0.115,51.582 1.271,52.86c1.081,1.193 2.503,1.405 9.457,1.405c5.854,-0 8.611,-0.311 9.677,-1.09l0,-0Z" style="fill:#fff;"/><path d="M275.537,454.893c1.12,-0.931 1.268,-3.425 1.268,-21.339l0,-20.284l26.507,0.42l0.206,19.931c0.177,17.192 0.378,20.121 1.463,21.32c1.067,1.179 2.526,1.391 9.591,1.391c7.308,-0 8.521,-0.189 9.869,-1.537c1.505,-1.506 1.536,-2.561 1.536,-52.296c0,-33.52 -0.27,-51.264 -0.795,-52.245c-0.72,-1.346 -1.689,-1.486 -10.278,-1.486c-6.959,-0 -9.709,0.272 -10.332,1.023c-0.559,0.674 -0.919,7.817 -1.055,20.937l-0.205,19.913l-26.507,0.42l0,-20.224c0,-14.706 -0.251,-20.477 -0.922,-21.147c-1.091,-1.091 -19.49,-1.313 -20.151,-0.243c-0.231,0.373 -0.433,24.141 -0.45,52.816c-0.029,49.084 0.049,52.198 1.334,53.154c1.875,1.396 17.121,0.973 18.921,-0.524l0,-0Z" style="fill:#fff;"/><path d="M742.231,455.136c1.594,-1.117 1.708,-1.777 1.708,-9.894c0,-6.254 -0.284,-8.934 -1.011,-9.538c-0.588,-0.488 -5.327,-0.929 -11.333,-1.054l-10.321,-0.215l-0,-64.539l9.555,-0.216c5.435,-0.124 9.99,-0.578 10.564,-1.055c1.46,-1.211 1.424,-17.788 -0.039,-19.004c-0.753,-0.625 -9.812,-0.814 -32.077,-0.67l-31.027,0.201l-0.218,9.111c-0.144,6.06 0.08,9.469 0.671,10.18c0.67,0.807 3.198,1.069 10.315,1.069c7.888,0 9.504,0.199 9.894,1.216c0.256,0.668 0.466,14.947 0.466,31.731c0,22.71 -0.236,30.752 -0.922,31.438c-0.619,0.619 -4.098,0.922 -10.603,0.922c-6.505,-0 -9.983,0.302 -10.602,0.922c-0.613,0.612 -0.922,3.952 -0.922,9.95c-0,7.787 0.184,9.135 1.344,9.811c0.851,0.495 12.643,0.791 32.098,0.806c26.617,0.02 30.984,-0.137 32.462,-1.172l-0.002,-0Z" style="fill:#fff;"/><path d="M646.363,423.838c1.851,-0.934 1.929,-1.28 2.144,-9.4c0.314,-11.863 1.811,-11.12 -22.418,-11.12c-16.257,0 -19.608,0.19 -21.043,1.196c-1.587,1.111 -1.708,1.788 -1.708,9.56c-0,11.465 -1.46,10.76 22.26,10.745c13.63,-0.007 19.376,-0.279 20.765,-0.981Z" style="fill:#fff;"/></g></svg>