<?xml version="1.0" encoding="UTF-8" standalone="no"?><!DOCTYPE svg PUBLIC "-//W3C//DTD SVG 1.1//EN" "http://www.w3.org/Graphics/SVG/1.1/DTD/svg11.dtd"><svg width="100%" height="100%" viewBox="0 0 1000 1750" version="1.1" xmlns="http://www.w3.org/2000/svg" xmlns:xlink="http://www.w3.org/1999/xlink" xml:space="preserve" xmlns:serif="http://www.serif.com/" style="fill-rule:evenodd;clip-rule:evenodd;stroke-linecap:round;stroke-linejoin:round;stroke-miterlimit:1.5;"><rect x="0" y="0" width="1000" height="204.009" style="fill:#fff;"/><g><path id="Fill-1" d="M268.958,29.056l-140.537,0l22.262,47.956l10.348,0l8.506,18.299l8.531,-18.299l10.374,0l-15.573,33.418l-6.638,0l32.458,69.865l33.216,-71.48c-2.653,1.523 -5.66,2.324 -8.72,2.324c-9.609,0 -17.516,-7.907 -17.516,-17.516c-0,-9.609 7.907,-17.517 17.516,-17.517c6.135,0 11.839,3.223 15.005,8.478l-7.825,4.695c-1.536,-2.52 -4.267,-4.077 -7.218,-4.114c-0.018,-0 -0.035,-0 -0.053,-0c-4.611,-0 -8.405,3.794 -8.405,8.405c0,4.611 3.794,8.405 8.405,8.405c2.994,-0 5.77,-1.6 7.271,-4.19l5.049,3.104l7.572,-16.052l-0,25.745l25.795,-0l-0,-8.33l-16.507,0l-0,-4.492l13.226,-0l-0,-8.128l-13.226,0l-0,-4.644l16.507,0l-0,-8.379l-21.909,-0l22.086,-47.553Zm-68.149,81.374l-9.591,0l0,-33.418l9.591,0l0,33.418Z" style="fill:#0e818a;fill-rule:nonzero;"/><path id="Fill-3" d="M88.012,108.79c2.54,-1.793 3.99,-4.77 3.836,-7.875c0.04,-1.658 -0.287,-3.305 -0.959,-4.821c-0.557,-1.244 -1.427,-2.322 -2.524,-3.13c-1.048,-0.756 -2.184,-1.384 -3.382,-1.868c-1.193,-0.497 -2.426,-0.894 -3.685,-1.186c-1.237,-0.278 -2.322,-0.555 -3.332,-0.808c-0.904,-0.192 -1.762,-0.56 -2.524,-1.085c-0.55,-0.359 -0.868,-0.985 -0.833,-1.641c0,-1.312 0.909,-2.094 2.524,-2.322c1.692,-0.223 3.413,-0.085 5.048,0.404c1.36,0.335 2.655,0.889 3.837,1.641l4.593,-6.689c-3.736,-2.463 -8.147,-3.707 -12.62,-3.559c-3.364,-0.1 -6.663,0.961 -9.338,3.004c-2.44,1.742 -3.875,4.575 -3.837,7.572c-0.05,1.81 0.395,3.599 1.287,5.174c0.81,1.292 1.94,2.353 3.282,3.079c1.322,0.757 2.707,1.398 4.139,1.919c1.35,0.506 2.733,0.919 4.139,1.236c1.111,0.216 2.178,0.617 3.155,1.187c0.722,0.349 1.197,1.067 1.237,1.867c0.048,0.81 -0.403,1.571 -1.136,1.919c-0.893,0.437 -1.886,0.628 -2.877,0.555c-1.21,-0.026 -2.417,-0.144 -3.609,-0.353c-1.115,-0.2 -2.201,-0.539 -3.231,-1.01c-0.744,-0.295 -1.428,-0.723 -2.019,-1.262l-4.846,7.042c4.117,2.614 8.932,3.917 13.806,3.736c3.486,0.149 6.931,-0.805 9.843,-2.726" style="fill:#0e818a;fill-rule:nonzero;"/><path id="Fill-4" d="M121.379,84.988l0,-8.379l-25.669,-0l-0,34.124l25.669,0l0,-8.38l-16.381,0l0,-4.593l13.226,-0l0,-8.178l-13.226,-0l0,-4.594l16.381,0Z" style="fill:#0e818a;fill-rule:nonzero;"/><path id="Fill-5" d="M143.969,91.753c-0.576,0.822 -1.52,1.313 -2.524,1.312l-5.881,0l-0,-8.077l5.931,0c1.005,-0 1.948,0.49 2.524,1.313c1.328,1.566 1.328,3.886 0,5.452m10.753,-2.726c0.086,-3.351 -1.276,-6.582 -3.736,-8.86c-2.462,-2.35 -5.759,-3.631 -9.162,-3.558l-15.624,-0l0,34.124l9.314,0l-0,-9.288l4.493,-0l4.24,9.288l10.449,0l-5.78,-11.459c3.602,-2.161 5.832,-6.047 5.881,-10.247" style="fill:#0e818a;fill-rule:nonzero;"/><path id="Fill-6" d="M262.067,128.3c-1.459,-0.921 -3.146,-1.42 -4.871,-1.439c-1.919,0 -3.282,0.758 -3.282,2.045c0,1.287 1.49,1.641 3.534,1.969l0.959,0.151c3.054,0.505 5.477,1.817 5.477,4.796c0,3.786 -3.331,5.603 -7.016,5.603c-2.594,0.057 -5.138,-0.732 -7.244,-2.246l1.792,-2.752c1.574,1.197 3.499,1.845 5.477,1.843c1.893,-0 3.382,-0.757 3.382,-2.07c-0,-1.312 -1.237,-1.615 -3.635,-1.994l-1.085,-0.176c-3.029,-0.48 -5.25,-1.818 -5.25,-4.897c0,-3.584 3.18,-5.427 6.84,-5.427c2.316,-0.032 4.593,0.598 6.563,1.818l-1.641,2.776Z" style="fill:#0e818a;fill-rule:nonzero;"/><path id="Fill-7" d="M274.637,132.086l-4.291,0l-0,4.316c-0,1.489 0.782,2.019 1.767,2.019c0.804,-0.057 1.579,-0.327 2.246,-0.782l1.161,2.524c-1.148,0.82 -2.527,1.253 -3.938,1.237c-2.927,-0 -4.442,-1.641 -4.442,-4.72l0,-4.594l-2.297,0l0,-2.827l2.297,0l0,-3.533l3.206,-0l-0,3.533l4.291,0l-0,2.827Z" style="fill:#0e818a;fill-rule:nonzero;"/><path id="Fill-8" d="M288.519,141.097l-3.13,-0l-0,-1.313c-0.873,1.056 -2.191,1.645 -3.559,1.59c-3.21,-0.289 -5.698,-3.011 -5.698,-6.234c-0,-3.222 2.488,-5.945 5.698,-6.234c1.373,-0.048 2.691,0.55 3.559,1.615l-0,-1.262l3.13,0l-0,11.838Zm-9.163,-6.033c0.094,1.62 1.452,2.903 3.075,2.903c1.689,0 3.079,-1.39 3.079,-3.079c-0,-1.688 -1.387,-3.077 -3.074,-3.079c-0.011,-0.001 -0.022,-0.001 -0.032,-0.001c-1.676,0 -3.054,1.379 -3.054,3.054c-0,0.068 0.002,0.135 0.006,0.202Z" style="fill:#0e818a;fill-rule:nonzero;"/><path id="Fill-9" d="M300.028,132.086l-4.316,0l-0,4.316c-0,1.489 0.782,2.019 1.792,2.019c0.805,-0.057 1.58,-0.327 2.246,-0.782l1.161,2.524c-1.146,0.822 -2.526,1.255 -3.937,1.237c-2.928,-0 -4.442,-1.641 -4.442,-4.72l-0,-4.594l-2.297,0l-0,-2.827l2.297,0l-0,-3.533l3.205,-0l0,3.533l4.316,0l-0.025,2.827Z" style="fill:#0e818a;fill-rule:nonzero;"/><path id="Fill-10" d="M313.254,135.064c0.018,0.354 0.018,0.707 -0,1.061l-8.481,-0c0.171,1.517 1.532,2.641 3.054,2.524c1.092,-0.005 2.151,-0.379 3.004,-1.061l1.867,2.045c-1.391,1.22 -3.198,1.862 -5.048,1.792c-0.025,0 -0.05,0 -0.075,0c-3.421,0 -6.235,-2.814 -6.235,-6.234c0,-3.392 2.768,-6.193 6.159,-6.235c0.013,0 0.025,0 0.038,0c3.143,0 5.729,2.587 5.729,5.73c0,0.126 -0.004,0.252 -0.012,0.378m-8.481,-1.085l5.25,0c0,-1.44 -1.185,-2.625 -2.625,-2.625c-1.44,0 -2.625,1.185 -2.625,2.625" style="fill:#0e818a;fill-rule:nonzero;"/><path id="Fill-11" d="M265.172,148.316l-2.524,2.524c-1.058,-1.112 -2.526,-1.741 -4.06,-1.741c-3.074,-0 -5.603,2.529 -5.603,5.603c-0,3.044 2.48,5.559 5.523,5.603c2.367,0.267 4.546,-1.427 4.871,-3.786l-4.366,-0l-0,-2.903l7.9,-0l0,0.959c0.012,0.185 0.019,0.37 0.019,0.556c-0,4.533 -3.713,8.272 -8.247,8.303c-4.763,-0.154 -8.597,-4.114 -8.597,-8.88c-0,-4.873 4.01,-8.884 8.884,-8.884c2.364,-0 4.634,0.944 6.3,2.62" style="fill:#0e818a;fill-rule:nonzero;"/><path id="Fill-12" d="M281.401,157.2c0.002,0.067 0.003,0.135 0.003,0.202c0,3.531 -2.905,6.436 -6.436,6.436c-3.531,0 -6.436,-2.905 -6.436,-6.436c-0,-3.53 2.903,-6.435 6.433,-6.436c0.084,-0.004 0.168,-0.005 0.252,-0.005c3.393,-0 6.184,2.791 6.184,6.183c0,0.019 0,0.037 -0,0.056m-9.591,-0c0.054,1.692 1.46,3.054 3.153,3.054c1.731,0 3.155,-1.424 3.155,-3.155c0,-1.73 -1.423,-3.154 -3.153,-3.155c-0.018,-0 -0.036,-0 -0.055,-0c-1.703,-0 -3.104,1.401 -3.104,3.104c-0,0.051 0.001,0.101 0.004,0.152" style="fill:#0e818a;fill-rule:nonzero;"/><path id="Fill-13" d="M290.134,163.131l-3.685,0l-4.695,-11.862l3.483,-0l3.08,8.48l3.104,-8.48l3.382,-0l-4.669,11.862Z" style="fill:#0e818a;fill-rule:nonzero;"/><path id="Fill-14" d="M306.919,157.175c0.018,0.353 0.018,0.707 -0,1.06l-8.506,-0c0.183,1.511 1.535,2.628 3.054,2.524c1.102,-0.02 2.164,-0.422 3.003,-1.136l1.868,2.044c-1.393,1.218 -3.199,1.86 -5.048,1.793c-0.025,-0 -0.05,-0 -0.076,-0c-3.42,-0 -6.234,-2.814 -6.234,-6.235c-0,-3.391 2.767,-6.193 6.159,-6.234c0.024,-0 0.048,-0.001 0.072,-0.001c3.143,0 5.73,2.587 5.73,5.73c-0,0.169 -0.008,0.337 -0.022,0.505m-8.481,-1.085l5.25,-0c-0.08,-1.327 -1.195,-2.375 -2.524,-2.373c-0.052,-0.003 -0.104,-0.004 -0.156,-0.004c-1.329,-0 -2.442,1.05 -2.52,2.377" style="fill:#0e818a;fill-rule:nonzero;"/><path id="Fill-15" d="M317.141,151.218l-0.404,3.155c-0.618,-0.25 -1.277,-0.379 -1.944,-0.378c-0.056,-0.004 -0.112,-0.006 -0.168,-0.006c-1.302,-0 -2.373,1.071 -2.373,2.372c0,0.095 0.006,0.19 0.017,0.284l0,6.461l-3.256,0l0,-11.863l3.105,0l-0,1.313c0.746,-1.089 2.015,-1.704 3.332,-1.616c0.565,-0.009 1.128,0.076 1.666,0.253" style="fill:#0e818a;fill-rule:nonzero;"/><path id="Fill-16" d="M330.064,155.585l-0,7.572l-3.231,-0l-0,-6.563c-0,-1.716 -0.858,-2.524 -2.322,-2.524c-0.002,0 -0.003,0 -0.005,0c-1.384,0 -2.524,1.14 -2.524,2.524c0,0.051 0.002,0.101 0.005,0.152l-0,6.486l-3.206,0l0,-11.963l3.105,-0l-0,1.464c0.789,-1.144 2.121,-1.796 3.508,-1.717c0.069,-0.003 0.138,-0.005 0.207,-0.005c2.423,0 4.417,1.994 4.417,4.417c0,0.069 -0.002,0.138 -0.005,0.207" style="fill:#0e818a;fill-rule:nonzero;"/><path id="Fill-17" d="M352.073,155.585l-0,7.572l-3.18,-0l-0,-6.563c-0,-1.716 -0.858,-2.524 -2.322,-2.524c-0.002,0 -0.003,0 -0.005,0c-1.385,0 -2.524,1.14 -2.524,2.524c0,0.051 0.002,0.101 0.005,0.152l-0,6.486l-3.181,0l0,-6.638c0,-1.716 -0.858,-2.524 -2.322,-2.524c-0.001,0 -0.003,0 -0.004,0c-1.385,0 -2.524,1.14 -2.524,2.524c-0,0.051 0.001,0.101 0.004,0.152l0,6.486l-3.205,0l-0,-11.963l3.13,-0l-0,1.464c0.781,-1.14 2.103,-1.792 3.483,-1.717c1.573,-0.059 3.068,0.707 3.937,2.019c0.898,-1.272 2.361,-2.03 3.918,-2.03c2.54,-0 4.662,2.018 4.79,4.554" style="fill:#0e818a;fill-rule:nonzero;"/><path id="Fill-18" d="M365.904,157.175c0.022,0.353 0.022,0.707 0,1.06l-8.43,-0c0.184,1.511 1.536,2.628 3.054,2.524c1.102,-0.022 2.163,-0.424 3.004,-1.136l1.868,2.044c-1.393,1.218 -3.199,1.86 -5.048,1.793c-0.026,-0 -0.051,-0 -0.076,-0c-3.42,-0 -6.235,-2.814 -6.235,-6.235c0,-3.391 2.768,-6.193 6.159,-6.234c0.025,-0 0.049,-0.001 0.073,-0.001c3.143,0 5.73,2.587 5.73,5.73c-0,0.169 -0.008,0.337 -0.023,0.505m-8.48,-1.085l5.249,-0c0,-1.44 -1.184,-2.625 -2.624,-2.625c-1.44,-0 -2.625,1.185 -2.625,2.625" style="fill:#0e818a;fill-rule:nonzero;"/><path id="Fill-19" d="M379.256,155.585l0,7.572l-3.205,-0l-0,-6.563c-0,-1.716 -0.858,-2.524 -2.322,-2.524c-0.002,0 -0.003,0 -0.005,0c-1.384,0 -2.524,1.14 -2.524,2.524c0,0.051 0.002,0.101 0.005,0.152l-0,6.486l-3.206,0l0,-11.963l3.105,-0l-0,1.464c0.789,-1.144 2.121,-1.796 3.508,-1.717c0.069,-0.003 0.138,-0.005 0.207,-0.005c2.423,0 4.417,1.994 4.417,4.417c0,0.069 -0.002,0.138 -0.005,0.207" style="fill:#0e818a;fill-rule:nonzero;"/><path id="Fill-20" d="M390.539,154.095l-4.291,0l-0,4.342c-0,1.464 0.782,2.019 1.767,2.019c0.804,-0.059 1.579,-0.329 2.246,-0.782l1.161,2.524c-1.144,0.829 -2.524,1.271 -3.937,1.262c-2.928,-0 -4.443,-1.666 -4.443,-4.72l0,-4.645l-2.296,0l-0,-2.826l2.296,-0l0,-3.585l3.206,0l-0,3.534l4.291,0l-0,2.877Z" style="fill:#0e818a;fill-rule:nonzero;"/></g><g><ellipse cx="500" cy="1241.03" rx="179.479" ry="64.23" style="fill:#dceaeb;stroke:#0e818a;stroke-width:24.67px;"/><path d="M608.344,1091.74c34.381,-53.758 24.082,-124.601 -24.181,-166.35c-48.263,-41.75 -119.861,-41.75 -168.127,-0c-48.263,41.749 -58.56,112.592 -24.181,166.35l108.246,169.262l108.243,-169.262Z" style="fill:#dceaeb;stroke:#0e818a;stroke-width:24.67px;stroke-miterlimit:2;"/><path d="M552.382,1022.54c0,-28.869 -23.408,-52.274 -52.281,-52.274c-28.875,0 -52.282,23.405 -52.282,52.274c0,28.869 23.407,52.272 52.282,52.272c28.873,0 52.281,-23.403 52.281,-52.272Z" style="fill:none;stroke:#0e818a;stroke-width:24.67px;stroke-linecap:butt;stroke-linejoin:miter;stroke-miterlimit:2;"/></g><rect x="64.987" y="1400.7" width="870.027" height="120.027" style="fill:#0e818a;"/><g><path d="M886.275,1590l-0,-47.961" style="fill:none;stroke:#374a60;stroke-width:23.47px;"/><path d="M868.386,1590l0,-53.406" style="fill:none;stroke:#374a60;stroke-width:23.47px;"/><path d="M851.794,1499.78l0,90.219l-25.666,-25.407l25.666,25.407l49.258,0l-0,-43.295" style="fill:none;stroke:#374a60;stroke-width:23.47px;"/></g><g><path d="M243.244,1465.23l5.751,2.439c-1.258,2.576 -3.106,4.57 -5.544,5.981c-2.439,1.411 -5.176,2.116 -8.213,2.116c-4.54,0 -8.374,-1.549 -11.502,-4.647c-3.129,-3.098 -4.693,-6.916 -4.693,-11.456c-0,-4.509 1.564,-8.32 4.693,-11.433c3.128,-3.114 6.962,-4.67 11.502,-4.67c2.761,-0 5.291,0.598 7.592,1.794c2.3,1.196 4.14,2.868 5.521,5.015l-5.567,2.899c-1.687,-2.546 -4.203,-3.819 -7.546,-3.819c-2.791,-0 -5.138,0.974 -7.039,2.922c-1.902,1.947 -2.853,4.378 -2.853,7.292c-0,2.914 0.958,5.353 2.876,7.316c1.917,1.963 4.255,2.944 7.016,2.944c3.742,0 6.411,-1.564 8.006,-4.693Z" style="fill:#fff;fill-rule:nonzero;"/><path d="M264.822,1451.57c3.436,0 6.357,1.128 8.765,3.382c2.408,2.255 3.612,5.145 3.612,8.673c-0,3.527 -1.204,6.418 -3.612,8.673c-2.408,2.254 -5.329,3.381 -8.765,3.381c-3.497,0 -6.457,-1.127 -8.88,-3.381c-2.423,-2.255 -3.634,-5.146 -3.634,-8.673c-0,-3.528 1.211,-6.418 3.634,-8.673c2.423,-2.254 5.383,-3.382 8.88,-3.382Zm0,18.91c1.687,0 3.19,-0.636 4.509,-1.909c1.319,-1.273 1.978,-2.922 1.978,-4.946c0,-2.025 -0.659,-3.673 -1.978,-4.946c-1.319,-1.273 -2.822,-1.91 -4.509,-1.91c-1.748,0 -3.29,0.629 -4.624,1.887c-1.334,1.257 -2.001,2.914 -2.001,4.969c-0,2.055 0.667,3.711 2.001,4.969c1.334,1.258 2.876,1.886 4.624,1.886Z" style="fill:#fff;fill-rule:nonzero;"/><path d="M295.096,1451.43c2.761,0 4.985,0.898 6.672,2.692c1.687,1.794 2.53,4.118 2.53,6.97l0,13.987l-6.073,0l0,-12.698c0,-1.626 -0.422,-2.93 -1.265,-3.911c-0.844,-0.982 -1.971,-1.472 -3.382,-1.472c-3.803,-0 -5.705,2.637 -5.705,7.913l-0,10.168l-6.073,0l-0,-22.959l6.073,0l-0,2.071c1.84,-1.84 4.248,-2.761 7.223,-2.761Z" style="fill:#fff;fill-rule:nonzero;"/><path d="M325.095,1469.01l1.748,5.061c-2.116,1.135 -4.11,1.702 -5.981,1.702c-2.822,0 -5.031,-0.759 -6.626,-2.277c-1.595,-1.518 -2.392,-3.811 -2.392,-6.878l-0,-9.524l-4.923,-0l-0,-4.97l4.923,0l-0,-6.947l6.073,0l0,6.947l7.5,0l-0,4.97l-7.5,-0l0,9.063c0,2.638 1.12,3.957 3.359,3.957c1.165,0 2.438,-0.368 3.819,-1.104Z" style="fill:#fff;fill-rule:nonzero;"/><path d="M346.673,1452.12l6.073,0l0,22.959l-6.073,0l0,-1.794c-2.055,1.656 -4.585,2.484 -7.591,2.484c-3.037,0 -5.675,-1.15 -7.914,-3.45c-2.239,-2.301 -3.359,-5.199 -3.359,-8.696c0,-3.497 1.127,-6.403 3.382,-8.719c2.254,-2.316 4.885,-3.474 7.891,-3.474c3.036,0 5.567,0.844 7.591,2.531l0,-1.841Zm-6.533,18.358c1.717,0 3.236,-0.636 4.555,-1.909c1.319,-1.273 1.978,-2.922 1.978,-4.946c0,-2.025 -0.659,-3.681 -1.978,-4.969c-1.319,-1.288 -2.838,-1.933 -4.555,-1.933c-1.871,0 -3.413,0.629 -4.624,1.887c-1.212,1.257 -1.818,2.929 -1.818,5.015c0,2.086 0.606,3.75 1.818,4.992c1.211,1.242 2.753,1.863 4.624,1.863Z" style="fill:#fff;fill-rule:nonzero;"/><path d="M375.061,1466.89l5.521,1.978c-0.889,2.116 -2.323,3.796 -4.302,5.038c-1.978,1.242 -4.194,1.863 -6.648,1.863c-3.435,0 -6.342,-1.134 -8.719,-3.404c-2.377,-2.27 -3.566,-5.184 -3.566,-8.742c0,-3.558 1.189,-6.48 3.566,-8.765c2.377,-2.285 5.284,-3.428 8.719,-3.428c2.362,0 4.509,0.591 6.441,1.772c1.933,1.181 3.39,2.799 4.371,4.854l-5.613,2.162c-0.951,-2.147 -2.684,-3.22 -5.199,-3.22c-1.902,-0 -3.443,0.613 -4.624,1.84c-1.181,1.227 -1.771,2.822 -1.771,4.785c-0,1.963 0.59,3.55 1.771,4.762c1.181,1.211 2.722,1.817 4.624,1.817c2.484,0 4.294,-1.104 5.429,-3.312Z" style="fill:#fff;fill-rule:nonzero;"/><path d="M400.136,1469.01l1.749,5.061c-2.117,1.135 -4.111,1.702 -5.982,1.702c-2.822,0 -5.03,-0.759 -6.625,-2.277c-1.595,-1.518 -2.393,-3.811 -2.393,-6.878l0,-9.524l-4.923,-0l0,-4.97l4.923,0l0,-6.947l6.074,0l-0,6.947l7.499,0l0,4.97l-7.499,-0l-0,9.063c-0,2.638 1.119,3.957 3.358,3.957c1.166,0 2.439,-0.368 3.819,-1.104Z" style="fill:#fff;fill-rule:nonzero;"/><path d="M431.285,1469.01l1.748,5.061c-2.116,1.135 -4.11,1.702 -5.981,1.702c-2.822,0 -5.031,-0.759 -6.626,-2.277c-1.595,-1.518 -2.392,-3.811 -2.392,-6.878l-0,-9.524l-4.923,-0l-0,-4.97l4.923,0l-0,-6.947l6.073,0l0,6.947l7.5,0l-0,4.97l-7.5,-0l0,9.063c0,2.638 1.12,3.957 3.359,3.957c1.166,0 2.438,-0.368 3.819,-1.104Z" style="fill:#fff;fill-rule:nonzero;"/><path d="M450.609,1451.8c0.705,0 1.242,0.062 1.61,0.184l-0.322,5.844l-1.334,-0c-5.46,-0 -8.19,3.282 -8.19,9.846l0,7.407l-6.073,0l-0,-22.959l6.073,0l0,4.187c2.086,-3.006 4.831,-4.509 8.236,-4.509Z" style="fill:#fff;fill-rule:nonzero;"/><path d="M472.831,1452.12l6.074,0l-0,22.959l-6.074,0l0,-1.794c-2.055,1.656 -4.585,2.484 -7.591,2.484c-3.037,0 -5.675,-1.15 -7.914,-3.45c-2.239,-2.301 -3.359,-5.199 -3.359,-8.696c0,-3.497 1.128,-6.403 3.382,-8.719c2.255,-2.316 4.885,-3.474 7.891,-3.474c3.036,0 5.567,0.844 7.591,2.531l0,-1.841Zm-6.533,18.358c1.718,0 3.236,-0.636 4.555,-1.909c1.319,-1.273 1.978,-2.922 1.978,-4.946c0,-2.025 -0.659,-3.681 -1.978,-4.969c-1.319,-1.288 -2.837,-1.933 -4.555,-1.933c-1.871,0 -3.412,0.629 -4.624,1.887c-1.212,1.257 -1.817,2.929 -1.817,5.015c-0,2.086 0.605,3.75 1.817,4.992c1.212,1.242 2.753,1.863 4.624,1.863Z" style="fill:#fff;fill-rule:nonzero;"/><path d="M501.219,1466.89l5.521,1.978c-0.889,2.116 -2.323,3.796 -4.301,5.038c-1.979,1.242 -4.195,1.863 -6.649,1.863c-3.435,0 -6.342,-1.134 -8.719,-3.404c-2.377,-2.27 -3.565,-5.184 -3.565,-8.742c-0,-3.558 1.188,-6.48 3.565,-8.765c2.377,-2.285 5.284,-3.428 8.719,-3.428c2.362,0 4.509,0.591 6.441,1.772c1.933,1.181 3.39,2.799 4.371,4.854l-5.613,2.162c-0.951,-2.147 -2.684,-3.22 -5.199,-3.22c-1.902,-0 -3.443,0.613 -4.624,1.84c-1.181,1.227 -1.771,2.822 -1.771,4.785c-0,1.963 0.59,3.55 1.771,4.762c1.181,1.211 2.722,1.817 4.624,1.817c2.485,0 4.294,-1.104 5.429,-3.312Z" style="fill:#fff;fill-rule:nonzero;"/><path d="M512.078,1442.71c0.705,-0.721 1.579,-1.082 2.622,-1.082c1.043,0 1.917,0.361 2.623,1.082c0.705,0.72 1.058,1.572 1.058,2.553c-0,1.012 -0.353,1.856 -1.058,2.531c-0.706,0.674 -1.58,1.012 -2.623,1.012c-1.074,-0 -1.955,-0.338 -2.645,-1.012c-0.691,-0.675 -1.036,-1.519 -1.036,-2.531c0,-0.981 0.353,-1.833 1.059,-2.553Zm5.659,9.408l-0,22.959l-6.074,0l0,-22.959l6.074,0Z" style="fill:#fff;fill-rule:nonzero;"/><path d="M537.797,1451.43c2.76,0 4.984,0.898 6.671,2.692c1.687,1.794 2.531,4.118 2.531,6.97l-0,13.987l-6.073,0l-0,-12.698c-0,-1.626 -0.422,-2.93 -1.266,-3.911c-0.843,-0.982 -1.97,-1.472 -3.381,-1.472c-3.804,-0 -5.706,2.637 -5.706,7.913l0,10.168l-6.073,0l0,-22.959l6.073,0l0,2.071c1.841,-1.84 4.249,-2.761 7.224,-2.761Z" style="fill:#fff;fill-rule:nonzero;"/><path d="M575.203,1452.12l0.046,20.751c-0,3.435 -1.174,6.119 -3.52,8.051c-2.347,1.933 -5.437,2.899 -9.271,2.899c-4.172,0 -7.377,-1.073 -9.616,-3.221l3.773,-4.509c1.871,1.503 3.788,2.255 5.751,2.255c2.086,-0 3.773,-0.575 5.061,-1.725c1.288,-1.151 1.932,-2.707 1.932,-4.67l0,-0.368c-1.748,1.41 -4.156,2.116 -7.223,2.116c-2.945,-0 -5.537,-1.089 -7.776,-3.267c-2.239,-2.177 -3.358,-4.815 -3.358,-7.913c-0,-3.068 1.119,-5.683 3.358,-7.845c2.239,-2.162 4.831,-3.244 7.776,-3.244c3.006,0 5.414,0.706 7.223,2.117l0,-1.427l5.844,0Zm-12.009,16.38c1.656,-0 3.098,-0.56 4.325,-1.679c1.227,-1.12 1.84,-2.554 1.84,-4.302c0,-1.749 -0.613,-3.183 -1.84,-4.302c-1.227,-1.12 -2.669,-1.68 -4.325,-1.68c-1.84,0 -3.359,0.553 -4.555,1.657c-1.196,1.104 -1.794,2.546 -1.794,4.325c-0,1.779 0.598,3.22 1.794,4.325c1.196,1.104 2.715,1.656 4.555,1.656Z" style="fill:#fff;fill-rule:nonzero;"/><path d="M608.744,1466.89l5.521,1.978c-0.89,2.116 -2.324,3.796 -4.302,5.038c-1.979,1.242 -4.195,1.863 -6.649,1.863c-3.435,0 -6.341,-1.134 -8.718,-3.404c-2.377,-2.27 -3.566,-5.184 -3.566,-8.742c-0,-3.558 1.189,-6.48 3.566,-8.765c2.377,-2.285 5.283,-3.428 8.718,-3.428c2.362,0 4.509,0.591 6.442,1.772c1.932,1.181 3.389,2.799 4.371,4.854l-5.613,2.162c-0.951,-2.147 -2.684,-3.22 -5.2,-3.22c-1.901,-0 -3.443,0.613 -4.623,1.84c-1.181,1.227 -1.772,2.822 -1.772,4.785c0,1.963 0.591,3.55 1.772,4.762c1.18,1.211 2.722,1.817 4.623,1.817c2.485,0 4.295,-1.104 5.43,-3.312Z" style="fill:#fff;fill-rule:nonzero;"/><path d="M632.162,1451.43c2.761,0 4.985,0.898 6.672,2.692c1.687,1.794 2.53,4.118 2.53,6.97l0,13.987l-6.073,0l0,-12.698c0,-1.626 -0.422,-2.93 -1.265,-3.911c-0.844,-0.982 -1.971,-1.472 -3.382,-1.472c-3.803,-0 -5.705,2.637 -5.705,7.913l-0,10.168l-6.073,0l-0,-33.127l6.073,0l-0,12.239c1.84,-1.84 4.248,-2.761 7.223,-2.761Z" style="fill:#fff;fill-rule:nonzero;"/><path d="M668.924,1463.16l0,2.07l-17.484,0c0.307,1.626 1.005,2.922 2.094,3.888c1.089,0.966 2.385,1.449 3.888,1.449c2.392,0 4.217,-0.767 5.475,-2.3l4.831,2.392c-2.178,3.405 -5.613,5.107 -10.306,5.107c-3.405,0 -6.258,-1.134 -8.558,-3.404c-2.301,-2.27 -3.451,-5.184 -3.451,-8.742c0,-3.558 1.143,-6.48 3.428,-8.765c2.285,-2.285 5.099,-3.428 8.443,-3.428c3.128,0 5.82,1.097 8.074,3.29c2.255,2.193 3.443,5.007 3.566,8.443Zm-11.64,-6.442c-1.258,0 -2.431,0.369 -3.52,1.105c-1.089,0.736 -1.802,1.779 -2.139,3.128l11.088,0c-0.399,-1.411 -1.081,-2.469 -2.048,-3.174c-0.966,-0.706 -2.093,-1.059 -3.381,-1.059Z" style="fill:#fff;fill-rule:nonzero;"/><path d="M689.398,1466.89l5.522,1.978c-0.89,2.116 -2.324,3.796 -4.302,5.038c-1.979,1.242 -4.195,1.863 -6.649,1.863c-3.435,0 -6.341,-1.134 -8.719,-3.404c-2.377,-2.27 -3.565,-5.184 -3.565,-8.742c-0,-3.558 1.188,-6.48 3.565,-8.765c2.378,-2.285 5.284,-3.428 8.719,-3.428c2.362,0 4.509,0.591 6.442,1.772c1.932,1.181 3.389,2.799 4.37,4.854l-5.613,2.162c-0.951,-2.147 -2.684,-3.22 -5.199,-3.22c-1.901,-0 -3.443,0.613 -4.624,1.84c-1.181,1.227 -1.771,2.822 -1.771,4.785c-0,1.963 0.59,3.55 1.771,4.762c1.181,1.211 2.723,1.817 4.624,1.817c2.485,0 4.294,-1.104 5.429,-3.312Z" style="fill:#fff;fill-rule:nonzero;"/><path d="M710.563,1462.93l13.205,12.146l-8.696,0l-9.248,-8.972l-0.23,0l-0,8.972l-6.074,0l0,-33.127l6.074,0l-0,18.174l0.368,0l8.696,-8.006l7.913,0l-12.008,10.813Z" style="fill:#fff;fill-rule:nonzero;"/><rect x="724.228" y="1460.72" width="15.091" height="5.245" style="fill:#fff;fill-rule:nonzero;"/><path d="M746.036,1442.71c0.706,-0.721 1.58,-1.082 2.623,-1.082c1.043,0 1.917,0.361 2.622,1.082c0.706,0.72 1.058,1.572 1.058,2.553c0,1.012 -0.352,1.856 -1.058,2.531c-0.705,0.674 -1.579,1.012 -2.622,1.012c-1.074,-0 -1.956,-0.338 -2.646,-1.012c-0.69,-0.675 -1.035,-1.519 -1.035,-2.531c-0,-0.981 0.353,-1.833 1.058,-2.553Zm5.659,9.408l0,22.959l-6.073,0l0,-22.959l6.073,0Z" style="fill:#fff;fill-rule:nonzero;"/><path d="M771.755,1451.43c2.761,0 4.985,0.898 6.672,2.692c1.687,1.794 2.53,4.118 2.53,6.97l0,13.987l-6.073,0l0,-12.698c0,-1.626 -0.422,-2.93 -1.265,-3.911c-0.844,-0.982 -1.971,-1.472 -3.382,-1.472c-3.803,-0 -5.705,2.637 -5.705,7.913l-0,10.168l-6.073,0l-0,-22.959l6.073,0l-0,2.071c1.84,-1.84 4.248,-2.761 7.223,-2.761Z" style="fill:#fff;fill-rule:nonzero;"/></g><g><path d="M306.418,687.002l0.243,-117.966l184.007,-0.241l184.007,-0.242l0,236.415l-368.5,-0l0.243,-117.966Z" style="fill:#0e818a;"/><path d="M362.043,758.541c0.793,-0.793 1.664,-2.192 1.936,-3.111c0.271,-0.918 1.628,-5.757 3.013,-10.754c1.386,-4.998 3.023,-9.406 3.637,-9.796c0.614,-0.391 7.885,-0.717 16.158,-0.725l15.042,-0.014l3.457,11.246c2.098,6.823 4.223,11.905 5.403,12.921c1.604,1.38 3.837,1.675 12.699,1.675c9.344,0 10.968,-0.238 12.396,-1.817c1.567,-1.73 0.833,-4.851 -15.537,-66.126c-9.45,-35.37 -17.681,-64.81 -18.291,-65.421c-0.707,-0.709 -6.057,-1.223 -14.753,-1.419c-12.094,-0.272 -13.87,-0.109 -15.642,1.436c-1.493,1.301 -3.628,7.929 -8.425,26.149c-3.534,13.424 -11.118,41.798 -16.854,63.054c-5.736,21.256 -10.429,39.367 -10.429,40.247c0,3.31 2.037,3.897 13.523,3.897c8.722,0 11.547,-0.321 12.667,-1.441l-0,-0.001Zm14.966,-54.379c0,-1.95 6.631,-36.408 8.23,-42.763c0.567,-2.257 0.648,-2.285 1.413,-0.479c0.447,1.053 2.578,10.959 4.736,22.014c2.158,11.055 4.142,20.854 4.408,21.775c0.439,1.516 -0.427,1.675 -9.151,1.675c-9.441,-0 -9.636,-0.042 -9.636,-2.221l0,-0.001Z" style="fill:#fff;"/><path d="M476.613,758.992c1.756,-0.94 1.852,-2.246 1.852,-25.286c-0,-13.362 0.261,-24.976 0.581,-25.809c0.481,-1.253 2.414,-1.516 11.246,-1.53c17.463,-0.028 27.207,-2.923 35.473,-10.543c12.676,-11.684 15.816,-33.883 7.189,-50.821c-2.745,-5.391 -10.346,-12.365 -16.733,-15.353c-7.727,-3.617 -15.956,-4.557 -40.175,-4.593c-16.701,-0.021 -20.488,0.225 -22.254,1.461l-2.127,1.49l0,64.237c0,58.43 0.143,64.395 1.584,65.987c1.342,1.482 3.111,1.75 11.549,1.75c5.48,0 10.797,-0.446 11.815,-0.99l0,-0Zm2.433,-81.879c-1.106,-2.881 -0.638,-21.974 0.567,-23.18c1.373,-1.373 14.762,-1.517 20.387,-0.22c5.803,1.339 9.093,5.544 9.093,11.621c-0,5.566 -1.91,9.441 -5.781,11.727c-3.803,2.246 -23.408,2.288 -24.266,0.049l-0,0.003Z" style="fill:#fff;"/><path d="M581.621,758.492c2.107,-1.475 2.127,-1.73 2.127,-26.799l0,-25.31l10.29,-0.005c19.691,-0.014 29.336,-3.196 37.995,-12.549c6.765,-7.307 9.291,-13.831 9.882,-25.523c0.915,-18.101 -6.569,-31.732 -21.178,-38.568c-7.935,-3.713 -15.968,-4.645 -40.365,-4.681c-16.7,-0.021 -20.488,0.224 -22.253,1.461l-2.127,1.49l-0,128.995l2.127,1.49c1.583,1.108 4.59,1.49 11.751,1.49c7.161,-0 10.168,-0.381 11.751,-1.49l0,-0.001Zm2.339,-92.547l0.267,-12.682l10.616,0.028c11.822,0.035 14.278,0.934 17.661,6.483c3.432,5.628 1.546,13.499 -4.052,16.912c-2.682,1.636 -4.825,1.932 -13.964,1.935l-10.795,0.004l0.267,-12.68Z" style="fill:#fff;"/><rect x="64.987" y="311.091" width="870.027" height="236.41" style="fill:#0e818a;"/><path d="M463.151,503.256c10.345,-2.462 21.975,-11.307 26.433,-20.104c4.494,-8.868 6.68,-22.753 4.003,-25.43c-0.762,-0.762 -4.919,-1.148 -12.374,-1.148c-12.174,-0 -14.234,0.762 -14.234,5.27c0,5.565 -3.962,11.243 -9.485,13.594c-5.061,2.154 -13.748,1.749 -18.386,-0.858c-4.964,-2.79 -6.372,-5.59 -7.673,-15.258c-1.28,-9.508 -0.549,-48.602 1.002,-53.62c1.417,-4.583 6.267,-9.229 10.545,-10.101c12.489,-2.543 22.064,2.601 23.573,12.667c0.945,6.302 2.673,7.149 14.578,7.149c12.43,0 13.603,-0.563 13.603,-6.532c-0,-11.251 -5.121,-22.597 -13.704,-30.365c-16.066,-14.538 -44.656,-15.137 -61.88,-1.296c-5.584,4.488 -10.329,11.951 -13.076,20.571c-5.073,15.915 -5.327,58.721 -0.446,75.367c7.174,24.469 30.302,36.569 57.521,30.094l-0,-0Z" style="fill:#fff;"/><path d="M150.259,503.011c14.698,-4.213 25.485,-14.863 29.064,-28.692c1.762,-6.81 1.923,-15.001 0.327,-16.597c-0.762,-0.762 -4.901,-1.148 -12.294,-1.148c-12.633,-0 -13.615,0.48 -14.638,7.156c-1.44,9.401 -10.536,14.83 -21.464,12.811c-9.803,-1.811 -12.552,-6.22 -13.817,-22.16c-1.031,-12.996 -0.273,-42.213 1.243,-47.894c1.551,-5.816 6.163,-10.052 12.145,-11.156c6.53,-1.206 13.304,0.205 16.872,3.513c3.023,2.803 5.345,7.679 5.345,11.224c0,4.192 3.114,5.349 14.387,5.349c13.451,0 13.841,-0.294 13.114,-9.91c-1.24,-16.393 -11.872,-30.016 -27.849,-35.684c-6.399,-2.27 -16.168,-3.122 -24.285,-2.118c-20.217,2.5 -34.271,16.609 -38.075,38.225c-1.953,11.097 -1.953,49.034 0,60.131c3.768,21.407 17.271,35.331 37.251,38.408c5.999,0.924 16.786,0.23 22.674,-1.458l0,0Z" style="fill:#fff;"/><path d="M533.556,502.116c1.74,-1.272 1.888,-3.033 2.336,-27.901l0.479,-26.544l18.586,26.997c10.222,14.848 19.346,27.403 20.276,27.9c0.929,0.498 6.575,0.905 12.547,0.905c12.053,-0 15.111,-1.085 15.111,-5.362c-0,-1.592 -6.572,-11.345 -19.796,-29.378c-23.895,-32.586 -24.232,-33.074 -24.232,-35.075c0,-0.875 9.691,-14.233 21.535,-29.684c12.663,-16.519 21.536,-28.939 21.536,-30.147c-0,-3.877 -1.636,-4.352 -15.005,-4.352l-12.707,0l-3.612,4.573c-1.986,2.515 -10.503,13.936 -18.925,25.38l-15.314,20.807l-0.479,-24.183c-0.263,-13.301 -0.827,-24.722 -1.253,-25.38c-1.062,-1.642 -23.718,-1.685 -25.355,-0.048c-0.87,0.871 -1.148,16.669 -1.148,65.249c-0,58.302 0.143,64.258 1.584,65.85c1.345,1.487 3.117,1.75 11.781,1.75c7.29,0 10.726,-0.387 12.055,-1.357l-0,-0Z" style="fill:#fff;"/><path d="M385.624,501.559c1.672,-1.673 1.914,-3.191 1.914,-12.027c-0,-5.562 -0.446,-10.946 -0.991,-11.964c-0.943,-1.763 -2.272,-1.852 -27.639,-1.852c-21.6,0 -26.859,-0.252 -27.755,-1.332c-0.735,-0.886 -1.015,-5.132 -0.835,-12.682l0.271,-11.35l25.763,-0.255c17.052,-0.169 26.195,-0.613 27.039,-1.313c1.758,-1.459 1.829,-24.282 0.079,-25.414c-0.658,-0.426 -12.825,-0.99 -27.039,-1.253l-25.842,-0.478l-0.279,-10.529c-0.153,-5.79 -0.037,-11.497 0.258,-12.682l0.536,-2.153l26.747,-0c25.465,-0 26.796,-0.089 27.739,-1.852c0.545,-1.018 0.991,-6.215 0.991,-11.548c-0,-5.333 -0.446,-10.53 -0.991,-11.548c-0.955,-1.785 -2.418,-1.852 -40.487,-1.852c-29.442,0 -39.787,0.293 -40.644,1.149c-0.87,0.87 -1.148,16.669 -1.148,65.248c-0,58.303 0.143,64.258 1.584,65.851c1.485,1.64 4.005,1.75 40.199,1.75c37.339,-0 38.679,-0.064 40.53,-1.914l-0,-0Z" style="fill:#fff;"/><path d="M847.493,502.115c1.764,-1.289 1.882,-3.114 2.336,-36.331l0.478,-34.973l13.859,34.178c7.706,19.004 14.804,35.133 15.988,36.33c1.991,2.013 2.939,2.154 14.548,2.154c10.013,-0 12.709,-0.291 13.922,-1.504c1.337,-1.338 1.504,-8.637 1.504,-65.925c-0,-53.842 -0.218,-64.601 -1.331,-65.525c-0.889,-0.738 -5.257,-1.015 -13.161,-0.835l-11.829,0.27l-0.25,37.77c-0.139,20.773 -0.583,38.102 -0.989,38.507c-0.405,0.406 -6.907,-15.807 -14.448,-36.029c-7.542,-20.222 -14.336,-37.658 -15.098,-38.747c-1.292,-1.844 -2.322,-1.98 -15.02,-1.98c-9.327,0 -13.995,0.363 -14.781,1.149c-0.87,0.87 -1.148,16.669 -1.148,65.248c-0,58.303 0.143,64.258 1.584,65.85c1.345,1.488 3.117,1.751 11.781,1.751c7.292,-0 10.726,-0.387 12.055,-1.358l-0,0Z" style="fill:#fff;"/><path d="M220.375,501.681c1.396,-1.16 1.58,-4.267 1.58,-26.583l0,-25.269l33.021,0.523l0.256,24.829c0.22,21.417 0.471,25.066 1.823,26.56c1.329,1.468 3.147,1.732 11.948,1.732c9.103,-0 10.615,-0.236 12.294,-1.914c1.875,-1.876 1.914,-3.191 1.914,-65.148c0,-41.758 -0.336,-63.862 -0.991,-65.084c-0.897,-1.677 -2.104,-1.852 -12.804,-1.852c-8.669,0 -12.094,0.339 -12.871,1.275c-0.697,0.84 -1.145,9.738 -1.313,26.082l-0.256,24.807l-33.021,0.523l0,-25.195c0,-18.32 -0.313,-25.508 -1.148,-26.343c-1.36,-1.359 -24.28,-1.636 -25.104,-0.303c-0.287,0.465 -0.54,30.073 -0.561,65.796c-0.036,61.146 0.062,65.025 1.663,66.217c2.335,1.739 21.327,1.212 23.57,-0.653l0,-0Z" style="fill:#fff;"/><path d="M801.76,501.983c1.985,-1.391 2.127,-2.214 2.127,-12.326c0,-7.79 -0.353,-11.129 -1.259,-11.88c-0.733,-0.609 -6.636,-1.158 -14.118,-1.314l-12.858,-0.268l0,-80.399l11.903,-0.27c6.771,-0.154 12.446,-0.72 13.161,-1.314c1.818,-1.509 1.774,-22.159 -0.049,-23.673c-0.939,-0.779 -12.223,-1.015 -39.96,-0.835l-38.652,0.25l-0.271,11.35c-0.18,7.549 0.099,11.795 0.835,12.682c0.835,1.005 3.984,1.332 12.85,1.332c9.827,-0 11.839,0.247 12.326,1.514c0.319,0.832 0.58,18.62 0.58,39.529c0,28.291 -0.293,38.309 -1.148,39.164c-0.772,0.772 -5.105,1.148 -13.208,1.148c-8.104,0 -12.437,0.377 -13.209,1.149c-0.763,0.763 -1.148,4.924 -1.148,12.395c-0,9.701 0.23,11.38 1.675,12.222c1.059,0.617 15.75,0.986 39.986,1.005c33.158,0.025 38.597,-0.172 40.439,-1.461l-0.002,-0Z" style="fill:#fff;"/><path d="M682.332,462.994c2.305,-1.164 2.403,-1.595 2.671,-11.711c0.391,-14.777 2.256,-13.852 -27.928,-13.852c-20.252,0 -24.426,0.237 -26.214,1.49c-1.977,1.385 -2.128,2.227 -2.128,11.91c0,14.281 -1.819,13.403 27.731,13.386c16.979,-0.01 24.138,-0.349 25.868,-1.223Z" style="fill:#fff;"/></g></svg>